/* XPM */
static char *_db50cc3a8f0408ec000abffd9702197rAfB0293AgkhKts1[] = {
/* columns rows colors chars-per-pixel */
"64 64 256 2 ",
"   c #023A1D",
".  c #011833",
"X  c #042838",
"o  c #073739",
"O  c #14383A",
"+  c #092E2C",
"@  c #001D19",
"#  c #107018",
"$  c #034528",
"%  c #094637",
"&  c #16483B",
"*  c #0F5731",
"=  c #25563B",
"-  c #264F35",
";  c #146C35",
":  c #27693A",
">  c #28773A",
",  c #36773A",
"<  c #336D33",
"1  c #0E5019",
"2  c #44773B",
"3  c #032748",
"4  c #083848",
"5  c #163947",
"6  c #123355",
"7  c #233C4D",
"8  c #043570",
"9  c #182459",
"0  c #0A4847",
"q  c #184848",
"w  c #195747",
"e  c #0A4957",
"r  c #184955",
"t  c #195955",
"y  c #07564D",
"u  c #244946",
"i  c #265849",
"p  c #244954",
"a  c #255955",
"s  c #355551",
"d  c #19684A",
"f  c #1B6956",
"g  c #18734D",
"h  c #276849",
"j  c #36684A",
"k  c #2A7747",
"l  c #367948",
"z  c #286756",
"x  c #356A56",
"c  c #297657",
"v  c #377957",
"b  c #0C4E74",
"n  c #2D556A",
"m  c #1B6B61",
"M  c #367964",
"N  c #2F6D68",
"B  c #436B56",
"V  c #447A57",
"C  c #4A754F",
"Z  c #467666",
"A  c #577C68",
"S  c #5A7A78",
"D  c #506B6E",
"F  c #6A7278",
"G  c #48596D",
"H  c #32911C",
"J  c #2A8736",
"K  c #38883A",
"L  c #379638",
"P  c #2E8E2E",
"I  c #39AB32",
"U  c #178719",
"Y  c #46963A",
"T  c #4C9136",
"R  c #48A938",
"E  c #59AA3B",
"W  c #5AB739",
"Q  c #4FAE2C",
"!  c #66BA39",
"~  c #6CB13B",
"^  c #49AA1E",
"/  c #5BC838",
"(  c #68C73A",
")  c #79CA3A",
"_  c #73D234",
"`  c #74E33F",
"'  c #298649",
"]  c #398848",
"[  c #3A9548",
"{  c #398556",
"}  c #3A9555",
"|  c #298B51",
" . c #3A8762",
".. c #318D64",
"X. c #39A946",
"o. c #468848",
"O. c #489747",
"+. c #54984A",
"@. c #468857",
"#. c #548B5A",
"$. c #489756",
"%. c #579857",
"&. c #548648",
"*. c #649752",
"=. c #48A748",
"-. c #55A847",
";. c #59B748",
":. c #4BA558",
">. c #58A857",
",. c #59B557",
"<. c #4BB151",
"1. c #67A849",
"2. c #66B847",
"3. c #75B949",
"4. c #67A857",
"5. c #68B857",
"6. c #75BA59",
"7. c #73AC54",
"8. c #478865",
"9. c #558A68",
"0. c #489564",
"q. c #589767",
"w. c #598A77",
"e. c #508E78",
"r. c #679867",
"t. c #77997A",
"y. c #699171",
"u. c #55A563",
"i. c #53AC67",
"p. c #67A766",
"a. c #78A969",
"s. c #6BB765",
"d. c #78B768",
"f. c #78A778",
"g. c #6EAF77",
"h. c #5BC44D",
"j. c #69C648",
"k. c #76C748",
"l. c #79D548",
"z. c #69C656",
"x. c #78C756",
"c. c #7AD657",
"v. c #6DD549",
"b. c #59C26D",
"n. c #7AC668",
"m. c #75CE6D",
"M. c #7EE551",
"N. c #85DA39",
"B. c #91E73B",
"V. c #86B954",
"C. c #89B373",
"Z. c #909D7B",
"A. c #86D847",
"S. c #87C956",
"D. c #87D757",
"F. c #94D958",
"G. c #8CD049",
"H. c #87E24A",
"J. c #88E555",
"K. c #96EC52",
"L. c #ACF354",
"P. c #85C767",
"I. c #89D768",
"U. c #96D768",
"Y. c #89C779",
"T. c #96D57A",
"R. c #92CC73",
"E. c #A8D775",
"W. c #98EA6C",
"Q. c #B6FC66",
"!. c #AAEB6F",
"~. c #A3DA48",
"^. c #CDFB75",
"/. c #084E88",
"(. c #265686",
"). c #2472A8",
"_. c #4B6D89",
"`. c #6F798D",
"'. c #797FA1",
"]. c #847B94",
"[. c #2A87B8",
"{. c #768685",
"}. c #6D928A",
"|. c #78AC88",
" X c #6093B0",
".X c #3490C7",
"XX c #31B7E8",
"oX c #4D99C7",
"OX c #4FAAD2",
"+X c #73AECC",
"@X c #60B1DD",
"#X c #3CCAF0",
"$X c #55CAF4",
"%X c #68D3F7",
"&X c #75D7F8",
"*X c #6DCDEF",
"=X c #73DAEC",
"-X c #8B9093",
";X c #86A595",
":X c #99B996",
">X c #8DB18D",
",X c #9496A9",
"<X c #94AFA8",
"1X c #A8B0AF",
"2X c #A8AF96",
"3X c #96C788",
"4X c #97C696",
"5X c #8FD28A",
"6X c #ABD493",
"7X c #AAE597",
"8X c #B8E997",
"9X c #B5EF8B",
"0X c #9CCDA8",
"qX c #B3D0AF",
"wX c #BAE5A6",
"eX c #B8EDAE",
"rX c #99E198",
"tX c #C8F898",
"yX c #CCF493",
"uX c #C6D6B2",
"iX c #C8E7A9",
"pX c #C6F9AA",
"aX c #D6F9A9",
"sX c #C6E9B7",
"dX c #D8FBB8",
"fX c #CFF0B5",
"gX c #E6FEB8",
"hX c #F5FEB8",
"jX c #EDFBAB",
"kX c #D6EA94",
"lX c #8BB7D1",
"zX c #AEB7C9",
"xX c #AFCACB",
"cX c #ADD5EA",
"vX c #89E6FE",
"bX c #9CD8E2",
"nX c #D7D7D7",
"mX c #CDD2CE",
"MX c #D7F8C6",
"NX c #D3ECCE",
"BX c #E8FCC8",
"VX c #F7FEC7",
"CX c #F8FED8",
"ZX c #E8F2D8",
"AX c #DADCE7",
"SX c #D8ECED",
"DX c #E9EBE8",
"FX c #EBF5EB",
"GX c #F8F8EB",
"HX c #EBF8F7",
"JX c #FDFCF3",
"KX c #FDFDFC",
"LX c #F6F6F7",
"PX c #F1EBF2",
"IX c #E0D5C3",
"UX c #C1AEB2",
/* pixels */
"o.} m %.+.v 4.k.k.g.%.@.,X|.% NX6XB 4XiXC.@.,.$.@.v V S.%.l c.5.t @._ 2.G.>.' ( +., j %.v x r.v -.3.S.3Xr.@.t.Z.= qX1Xu jX>Xz %.",
"i w z a 4 }.pXl > 9X;X:XiX< A 6Xy.2XeX; ] 9X%.O.H.%.& ] +.l 0 x } { I.4.l.c h L.p.v h w z i a j.L.> k iXqX}.MXy.k n.:X{.wX, A.N.",
"5.p 6 i i { Y.7X{ &.hX>Xh BXiX] iXtX] } / > r.6.k.] c { N a h Y >.c j.] P $.;XQ.5XP.I.a 3 u q <.7.5XV h aXqXw BXY.# iXCXl ^ j.$.",
"m < < s @.| e.pXs.6XyX#.{.yX! U.aXn._ I.d j NX4X; } @.a 6 o.>.O.C x Y -.{ 0XgXa.w h a l &.p a @.c qXR.Y.eX&.Z 6X5.R.jXV.L 3.@.c ",
"q P.m.4 s s.{ > 9X^.o.>XBX;.L ^.Y.P N.k.Z dXf.h =.u.z O 3.H.% N BXpX$.1 <XdX&.3 N t p S.x.o & %.} l ^.P.k tXVX$.5XjX6.I =.iXMX7X",
"k.T { 0 j 5.-.R !.O.s.9X3.v.K !.J.L ^ U.tX#.[ j.W z z j.j.8.r P.d.6 8.v.v 9.l q m 4 C.*.h v & p.k.2.F.:.] ^.~ -.G.~.c.[ -.V.#.v ",
" .w M B % ,.yXD.L l k.>.Y ) K A.j.g Q F.a.! ' $.D. .f ;.d % wXC.: o.i I.v z @.r { i j , O.M 4 S.^.7.# J O.>.-.D.+.W ;.' k.) 2.Q ",
"r h z 5 q +.F.j.| D.E t { _ -._ * y.9X; $ : a N j.<.d M & 1.R.6 j L.O u h v q < L.!.w k { 6 n >.!.2.=.A.3.y ' ~.,.X.K 1.yXh $ { ",
"3 h c ' ' z :.<.c j d.i.P v.O.J :X7Xg.-.4.4.n 5 x c 0 M E.C.o % k.k.q 3 +.C i ,.#.B O f :.O.c d =.,.j +.K.%.x k.,.* }.hXy.;X2XA ",
"O.i v =.w r l r : 1.+.t d ,., g.gXa.* m.6.*.i 5 r 9.i s tX8.& 8XtXx i o >.o.< :.. & c.B > ( + n d 3 j 5.] 0 t ;.: S dXT.0 rX7XB ",
"K.@.* y.mX|.% O P.*.A <X3Xl 0 9XF.1 r v 3 o 3.&.X f.dX#.S.h 9X9X7 X i h =.l & k #.y *.*.; +.uXZ O B R.< 6 :XI.' l tXU.  N | X &.",
"+.; |.fXiX_.X ! 4.w 3XwX|.] O.7.h q v n a r F.$.. B T.E.!.! 4.A t.C.a c i.h X p I 3Xu 1 |.mX8Xp . Q.p.. C.iXf.' W.N.* q @.m e d.",
"  ;XBXY.% 5 +.>.t U.3.< n l W.v 3 v : q 1.& @.,.u = H -.Q.) % >.8X3X%.$.w l C s f.7X% {.hXT.$ u $.+.= C.R.@ j { x.C 4 0.@.5 i.j ",
"Z.NX6.* 0 -.>.& P.N.- >XwXp & k i : v r V 9.a ;.k.[ [ > A.: -.N.+ & l.] x Y.%.A CXw A nXP.U 4 >.x.X 3.K.q F aXZ O i x { c 5 ; j ",
"jXM H T k  .p E F.- n.5Xs 7 4 8.& * q.& X BXZ o E 0.d T l.c ;.T 4 v ( % wX9Xo Z aXA jXZ ; k.i v O a.I.* &.yXB 5 3 $.o.+ 9.o F >X",
";.w +.+.5 9 : c.i l c.K 3 5 i k A x ] p.`.qXS B a e w C -.k m $ o T _ - V.S.y l Q.aX3.% k ! & 5 5 6XB 0 / k.O u d k Z w.3XB BX;X",
"w k { j q f { j u > j h c v 8.a uX;Xw pXMXX 9.yXy.X a 0.g w i S w.T ( = Y.P.y c E.U.M h l 0 w N @.v c d : { ] U.V + ,XSXO JXt.o ",
";.z.v v 2.-.,.j.3.@.] %.-.X.g dXf.X >XMXw.@.c.[ c >.,.R j.R.mXKXKXsX5.  8X4X% r.9Xv ;.A.&.x ,.2.( 2.c.4.l ' v sXN 2XsXq < CXn K ",
"` $.Y l.c.k.U.E -.dXg.%.tX> ; dXA {.VX%.= D.L O.c.H.j.-.wXJXKXLXJXKXHX;XR.>.r.gX( ^ _ l 9.!.I.D.F.< g.CX0Xv ZXD d aX:Xa ZXV @.J.",
") ] ! x.x &.K.~ > m.NX:Xg.NXiX] 1XVXC.< j.c.+.W Q , ;XNXKXKXGXJXJXGXKXHXNXqXpXz.' <.h s.D.h a +.K.S.@.O.8XuXu.qX4XK ;XCX@.[ 9Xc.",
"i k ;.D.x.+.g.sX%.# gX0Xh VXT.:.BXpXK L K ; R Q d.xXLXJXGXFXKXLXKXFXFXHXKXJXeX; * T.NX;X$ k z.2.} BXa.k VXfX  VX5Xq.aXyXL x.*.= ",
">.<.[ >.A.R c |.wX8Xq.|.sXn.J sXqX] ;.W.eX0Xo.4.FXJXKXLXGXLXLXGXLXGXGXGXGXJXFXxX9.tX;Xx +.5.;.>.g e.3XaX5Xk uX|.m.jX9XP D.dXqXmX",
"K.j.' h k ,.,.: gXiX%.4X9Xz.K yXn.J >.n.C.qXqXHXKXKXLXKXLXKXPXJXKXKXKXKXHXKXKXKXJXNX2 ^ K.] 0 2.2.# iXyXJ :XaX-.;.^.U.L ;.>X0X4X",
"2.h h >.] v n.D.R.d U.Y.J D.{ H.j.K L H o.qXKXKXKXcX+XHXJXGXKXLXJXHXbX&XvXSXHXbXPXKXdXI.* d $.} J.5.g.e.o.tX-./ H j.I.R ,.L J J ",
"l a h ;.,.= a.L.: 8.z.o.o._ <.F.$.  4.dXKXKXJXLXJXvXXX*XPXKXKXJXSX$X#X$XXX$X$X).+XHXKXPX;XV O.> yXI.g L ;.| } H.;./ $.N D.x.( A.",
"& o.:.t e @.K.k...G.#.y :.B.j.` < w.NXGXKXLXLXKXKX+X.X#X@XcXHXKXvXOX$X%X*X%X$Xb 3 zXPXJXJXxXZ >.H.$.%.K.x.f M !.P.j.P c Q.h n M ",
"y.%.c z a x >.=.=.i %.:.} j.k $.qXHXKXLXKXHXLXKXGXOXXX%X#X#X$XbX=X*X%X*X*XvXoX. F zXnXDXDXKXFX4X} $.V q $.b.f A.O.} { *.yXc.z.v ",
"{ i O 4.n.z z a w { u.{ k =.:.NXKXKXLXLXLXLXLXKXKX+X$X%X%X%X$X$X*X*X*X*X%XvX XF mXPXDXDXDXFXGXKXqX4 d } { v w =.h.d C.BXj i.,.i ",
"t   0XwXk c t + 5 :.$ ;XwX; i.KXKXGXLXKXLXLXGXGXKXxX[.$X*X*X*X%X%X&X*X*X&X$Xn ,XSXFXGXDXFXHXDXKXKXn l [ Z sXpX%.0 f.kXZ t M 0 4.",
"z qXqXB e r i R.!.q T C.S > s.LXKXJXJXDXLXKXGXKXJXPX[..X%X$X%X*X*X*X*XvX&Xb n xXAXFXDXFXDXDXKXKXzXE.7.3 j 3X}.M :.a.G 0 M n u %.",
": FX<X$ w o j m.r.:X>Xl w l !.AXAXKXJXGXKXLXHXcXSXHXcX).@X&X*X%X&XvXvX*Xb 6 1XnXDXFXDXDXFXJXFX1X'.a.x 7.3.4 c a K.+.3 h v = !.d ",
"qXrXt t.6Xl } 0 e yXB < F.4 r.AXnXAXFXJXLXKXHX X).XX=X=X&X&XvX&X&X*X[.8 6 ,XmXZXPXPXPXLXKXmX-X-X-X3 o.Q.A @.L.- h q.i w  .w y.t.",
"5Xk w.fX3X{ g 4 T.-.h x.;.o 9 +XmXnXnXAXLXJXGXSX X)./.)..X[.).)./.8 9 G 1XAXDXPXFXHXKXFX<XF -X`.(.w.x.p & L.7.z . V >.q %.% 3 R.",
"r.C dXC.$ i u u.W.x a.W.d O s OXOXlXmXuXIXDXKXKXKXSXlX X_.n n n _. XzXDXFXDXPXLXJXKXmX-X-X-X_.8 8 !.x.3 , F.e { p O.>.4 $.9.n * ",
"MXdX9.v u.{ #.V.v E A.] t % 9.cX@X.X@XxXIXIXDXGXGXJXKXKXKXLXPXLXKXJXJXGXDXFXLXKXFX1XZ.-X}.(.8 b D 4.k.,.0.#.w -.v 4.o.4 r.pX= B ",
"[ m.{ :X8X] c j q ,.2.q i Q w.LXSXlXoXoXlXmXIXnXFXKXKXLXGXJXJXJXJXGXFXFXFXKXLXmX-X-X-X_././.(.`. X7.= o.k.o n ! -.{ q D gX{ #.hX",
"R P 8XqXx o p { O.t x h h -.p 1XJXGXxXoX.X@XzXmXnXAXFXLXLXFXFXFXPXGXFXFXKXDX1X-X-X X(.b b _.{.-XD i q h +.h { %.T L % S gXx ZXZ.",
"u.@.a.s.| k C ] P c l K :.=.$ C.wXmXPXAXlX.XoXlXmXnXnXZXGXFXDXFXLXDXLXKXnX-X-X,X_.b b n `.,X`.C &.%.E > h P.-.[ C j.<.x aXBX>Xw ",
"{ 8.a v q.} ! l.v.] >.0., v.$.fXr.t.FXGXGXxXoX[.+XxXmXmXZXGXLXLXLXKXPX1X-X,X}.n b n S -X].G z s.v.) K.8X:X&.E <.8X5X; v hX:Xo.,.",
"$.r 5 s 0 f.dXT >.fXt.t.6X, g aXZ t.MXt.nXKXAX+X.XoXlXmXnXnXDXJXKXmX-X-X,X_.b b G '.-XF Z 0 w d.Q.*.B MXMXs eXu.E.:.e.ZX6X{ B.S.",
"z h i O * q.NX:XM f.qX4X0X<X3Xu.>XaXp.# U.xXDXZXxX X.XoXcXIXnX1X,X-X2X].(./.(._.,X-Xn 1.j.e N :.6.wXN , 9X6XBX6XI p.hXtXJ ` 6.o.",
"X W.D.r N ] 8.aX6.a.VXq.w VX9X+.VXtXR / H 1 uXJXLXnX+XoX.X+XmXUX2X,X_././.N {.,X`.7 6.4.z N w +.J 4X:X6X9Xr.dXQ.P wXgXj.R 2.> O.",
"V.>.O.r i :.f l 9XgXq.A uXd.O.dX7X-.! !.qXqXr.e.xXLXLXxXoX.X+X,X`.(./.b S ,X-XD n = %.0.] @.r l } : !.tX}.1XeXO.C.yXF.=.:.7XwXm.",
"I.x @.c = 7.x.=.yXs.O.6XtX,.> wXn.H W d.0X<X .P L }.PXGXAXlXoX)././._.{.2X'.7 w F.Q.z f >.a q x.l.$.x.E %.gX6.L !.L.R { x.6XR.>.",
"r x #.8.n *.L.v.2.' x.z.L U.< I.c.J E x.I T u.z.h.> @.qXPXPXcX X(.`.,X-Xn X i 5.k.7.0  . .4 j n.A.5.@.R j.k.! A.-.) =.] L.o.d O.",
"6 v z i a 8.F.2.' 5.W ' ] l.T H.J ; S.s.$.-.[ ..g.:.; >.>XnXKXmX,X1Xt.@.y.8.-.j.3 4 i M @.o.i +.-.N.{ =.M.c ,.N.} k ;.F.V.0 c >.",
"j #.v k l M u.4.l 5.H.0.c j.2.;.8.3X!.l h ] M a v { v -.Q V.qXmX,XA [ : sXaXH ' v @.+.w $.6.& -.j.) [ :.z.f { J.u.y S.^.@.8.%.%.",
"D.j x h.k e M y z %.) k h 5...} aXtXj.D.K.I.n & - #.e.% 3.L.d.}.n.d.k $ qX4X# ' =.o , { { 1.a c } 0.$.v t ' :.( f %.L.,.c W.!.#.",
"%.O.-.w.|.Y.i z U.1.j {.4.} d 8X!.v f $.h s w.C q f.eXp.2.+.9Xn.e.uXC.| L T.3X* ; N R.P.* q.CXq.] i.:.l &.h -.{ l F.m.d { $.n c ",
"z L E 9XgXy.% W.C.q a.aX4Xl k U.4.& w x r + U.+.. B 9X9XF.E x.6.J 2 T.M.# 0XsX* 8.BXgXv r.kX4XS t H.k v !.{ M ' F.D.k } =.B X d.",
"  5X!.S.2 O C x.0 +.J., 6 @.I.] 5 Z v q >.= s.=.4 C 3.j !.x.] ] ,.R T 2.[ 7Xf.v VXyX* F CX7X$ u l -.K l 5.3.t ] H.$.i :. .7 7.o.",
"D fXQ.< o 5.n.0 4.Q.j w.6Xu l c r l v r >.% t m.:.h O.v W.>.> =.=.] D.k T.J.; t.aXk = NX5X* r { I.0 3.u.: G.z ] $.z v i.c q >.c ",
"VXw.! [ m >.x x H.o.z n.1.r o } w z @.O O A p v ,.{ h >.A.c O.K.Y z _ & 7.Q b.Q.) y dXf.; [ i :.x x +.z > x.w v 0 k } z l & p }.",
"I.e Q E z q p aXA X x.6.+ O & 9.i @ >X>Xs GXD + v Z r o.k.v } ;.j w x.& >.h.=.k.! 5.!.i d j.z u O dXy.r ;.: 0 h a &.k s NX& NX0X",
"* m =.v 6 q @.9.6 c  .v l { c % 4X1X= <XNXD t.iX9.3 x +.O.k k c k v O.{ h ,.L l tXaXT y v l r n V %.@.c $.>.z 0X9.@ t.MXS AXqX& ",
"%.c.c t @.$.,.:.1.> c c L m.k ;XqXA B FXwXX >.n.{ z O.2.5.s.K O.i.] L Y 4X5Xy V kXq.x S.m.c v %.5.5.j.] k l.u VX9.G fXt.4 GXS * ",
"H.O.%.G.S.a.U.k.s.uXp.y.uXh + CXw.p CXuXp +.H.1.4.c.A.D.W 5.fXg.:.tXp.: gX|.z ZXF.] x.6.9.s.D.K.U.E I.gX:X> mXy.w GXuX+ MXt.z P.",
"P 5.7.1.o.%.D.L ] m.2X:XrX;X:X|.t.iXwXx T H.,.,.N.=.4.W.> c 3X6XY.7X7X%.>.>XuXwX' I / R [ j.k.p.^.O.v 3X4X1X0X-Xb.,.t.qX<X: !.W.",
"6Xd.O.-.E Y p.6X] P CX4X$ CXpX| ZXhXK # W J { 6.5.+.{ 4.7Xc ] hXuX* ^.6.# tXVXU * m.@.> / v.] K 7.fX0.; BXsX  VX5X* sXCX; =.R.{ ",
"qXV :.c.l.;. .mXC.9X8X{.;X7XY 7XfXV.j.z.9.S %.G.6.D.} { sX|.5XuX<X}.! W n.yXY.J a.hX>Xr [ ;.] :.| qX3X4XwX*.y.7Xp.qXgXx.k.E.y.D ",
"* z.,.| ] :.| k MXjXl ;XgX=.Y aXm.U k.iXBXMX>.J O.+.<.[ c BXyXk f.ZXO.P aX6XU >.^.E.aX|.d ] { ;.$.; sXgX# 9.VXX.T.jXV.U v.sXMXMX",
"c.;.[ ,.{ ' j.>.iXq.n.T.E I.K U.F.I [ @.o.h O.v.] w g.m.-.wXy.,.J.,.m.h P.W.[ I _ e j.R ..} t d.x.-.7Xm.} aXW =.W !.W.I W Y P ] ",
"_ O.f 5.-.k F.!.T * F.m.J G.T D.6.' h.H.2.$.z -.c.k c I.W.j v c.h.' l.d b.v.g L -.e W [ e } 0.h 9XT.J g >.T.L A.O.b.j.L v.H.j.E ",
"..:.a O.>.#.L.x.>.G.1.f $.) W l.@.> z.1.T ,.h a 5.$.l !.k.,.J.;.d  .U.G.J.P S eXiXqXp.@.v d $.6.L.>.+.~.S.g ' A.G.( X.{ S., j o."
};
