/* XPM */
static char *enemy1721857592[] = {
/* columns rows colors chars-per-pixel */
"64 64 256 2 ",
"   c #020203",
".  c #04010B",
"X  c #0B020C",
"o  c #070806",
"O  c #160507",
"+  c #0D0513",
"@  c #0A0716",
"#  c #130B14",
"$  c #160918",
"%  c #1B121D",
"&  c #151519",
"*  c #08150F",
"=  c #280A15",
"-  c #2E090C",
";  c #0D271A",
":  c #292417",
">  c #180B25",
",  c #1C1422",
"<  c #181826",
"1  c #081A2F",
"2  c #231523",
"3  c #241925",
"4  c #241B2A",
"5  c #281A2B",
"6  c #25122E",
"7  c #032739",
"8  c #08373A",
"9  c #0F2F30",
"0  c #29232C",
"q  c #2C2535",
"w  c #342939",
"e  c #38333C",
"r  c #2B322B",
"t  c #4D120B",
"y  c #72100B",
"u  c #6F2B18",
"i  c #4E3036",
"p  c #682B26",
"a  c #0A4638",
"s  c #174739",
"d  c #16593A",
"f  c #0A512E",
"g  c #27543D",
"h  c #314C35",
"j  c #1C673A",
"k  c #116B31",
"l  c #2A7A36",
"z  c #306F37",
"x  c #0E6319",
"c  c #764E33",
"v  c #555839",
"b  c #053647",
"n  c #143946",
"m  c #103150",
"M  c #3B3544",
"N  c #333346",
"B  c #070D44",
"V  c #453A48",
"C  c #483950",
"Z  c #0A4846",
"A  c #174748",
"S  c #185749",
"D  c #184955",
"F  c #1A5855",
"G  c #0B4F52",
"H  c #264946",
"J  c #27574A",
"K  c #234955",
"L  c #265855",
"P  c #38514E",
"I  c #196849",
"U  c #186657",
"Y  c #16724C",
"T  c #296748",
"R  c #37684C",
"E  c #297747",
"W  c #367848",
"Q  c #296756",
"!  c #366756",
"~  c #297656",
"^  c #387956",
"/  c #275169",
"(  c #1B6A64",
")  c #317266",
"_  c #115863",
"`  c #4A4754",
"'  c #4F5052",
"]  c #71554D",
"[  c #466658",
"{  c #477A56",
"}  c #4F6F50",
"|  c #6D7156",
" . c #5A5964",
".. c #4A5768",
"X. c #625B67",
"o. c #795867",
"O. c #447766",
"+. c #53706C",
"@. c #696A76",
"#. c #716E77",
"$. c #6B7073",
"%. c #8D2E16",
"&. c #91372D",
"*. c #904B31",
"=. c #AE5736",
"-. c #AE6638",
";. c #CC6134",
":. c #9D6558",
">. c #D17449",
",. c #E27D51",
"<. c #35883A",
"1. c #2F8F33",
"2. c #2C9B22",
"3. c #4A9435",
"4. c #4BA93C",
"5. c #59B638",
"6. c #55AA37",
"7. c #66BB3B",
"8. c #6DA83A",
"9. c #55A727",
"0. c #72CC37",
"q. c #5BC933",
"w. c #1C8550",
"e. c #2B8648",
"r. c #388848",
"t. c #3A9648",
"y. c #388657",
"u. c #399754",
"i. c #2A8B4F",
"p. c #39A44C",
"a. c #388967",
"s. c #478A49",
"d. c #479748",
"f. c #569849",
"g. c #478758",
"h. c #558958",
"j. c #489857",
"k. c #559857",
"l. c #598A4C",
"z. c #6A9853",
"x. c #4AA54A",
"c. c #57A846",
"v. c #5AB747",
"b. c #4BA558",
"n. c #58A858",
"m. c #5AB755",
"M. c #49B44F",
"N. c #65A949",
"B. c #66B748",
"V. c #75BC48",
"C. c #66AA5A",
"Z. c #68B756",
"A. c #78BA55",
"S. c #73AC57",
"D. c #568968",
"F. c #579867",
"G. c #4E8E6D",
"H. c #669967",
"J. c #779B78",
"K. c #6C8C73",
"L. c #53AB65",
"P. c #6BA965",
"I. c #77A675",
"U. c #73B36C",
"Y. c #5CC34C",
"T. c #68C548",
"R. c #76C94A",
"E. c #7AD449",
"W. c #79C757",
"Q. c #6ECE55",
"!. c #7CE451",
"~. c #78C568",
"^. c #77CD6E",
"/. c #70EA63",
"(. c #8CE639",
"). c #8FDD39",
"_. c #86BB56",
"`. c #8E9773",
"'. c #B5936B",
"]. c #88AF70",
"[. c #AFAC6C",
"{. c #F1B071",
"}. c #DB9766",
"|. c #87D849",
" X c #85C858",
".X c #87D657",
"XX c #95D957",
"oX c #8ED54B",
"OX c #8EEA51",
"+X c #ADF056",
"@X c #87C967",
"#X c #95D766",
"$X c #90CF72",
"%X c #A5DE72",
"&X c #93E768",
"*X c #ACF06C",
"=X c #A3DA4B",
"-X c #F8C679",
";X c #CBF66C",
":X c #767888",
">X c #6B748A",
",X c #507683",
"<X c #837E8B",
"1X c #789888",
"2X c #708B89",
"3X c #77A985",
"4X c #5C9285",
"5X c #72C581",
"6X c #8D9195",
"7X c #AC8C91",
"8X c #90B392",
"9X c #AAB597",
"0X c #8E99A8",
"qX c #95ABAB",
"wX c #A9B5B7",
"eX c #ABB0B1",
"rX c #A19DAB",
"tX c #E0B296",
"yX c #95CC8D",
"uX c #ABD797",
"iX c #A8D190",
"pX c #B3EC91",
"aX c #BAD8A7",
"sX c #ADCEAD",
"dX c #BBE9AB",
"fX c #9AD0A3",
"gX c #FBCE8D",
"hX c #C8F699",
"jX c #CFF790",
"kX c #C8D2B6",
"lX c #C6EAA8",
"zX c #D8FAB6",
"xX c #CEF1B1",
"cX c #E7FEB7",
"vX c #EFFCAF",
"bX c #D1E496",
"nX c #B3B9C5",
"mX c #A09AC8",
"MX c #C3BDCA",
"NX c #B7C7CE",
"BX c #BADDF3",
"VX c #C5C7CA",
"CX c #C9C9D5",
"ZX c #CBD6D7",
"AX c #D5D7DB",
"SX c #CED1CC",
"DX c #D4F2D1",
"FX c #E8FCC7",
"GX c #F7FDC9",
"HX c #EDF9D4",
"JX c #D3D9E5",
"KX c #D7E6ED",
"LX c #F6FCE9",
"PX c #FAFBFB",
"IX c #EAEEEE",
"UX c #E0DEEB",
/* pixels */
"3.y.~ j.d.^ U.7.|.I.P.{ 0X8Xa HXsX} iXlX].{ m.k.s.W { yXs.<.@Xv._ y.R.7.0.c.a.q.f.z ^ f.r.! P.a.c.R.XX$XP.g.K.9Xg kXeXA vXU.F c.",
"A J Q U b 3XxXe.r.pX8X8XlXz h.sXK.9XlXj r.pXF.d.|.n.f s.k.W g R D.h. XN.XXl j +XH.O.Q J Q K K V.OXl W kXNX3XDXK.E @X9X1XaXr.|.(.",
"~.P K H F y.@XuXy.s.vX8XT FXxX<.bXhXr.u.q.E K.Z.B.s.W O.2X:X$.2X1XK.6X>XJ.K.qXpX$X$X#XJ 7 H K n.7.yXO.j hXkXj FX$Xx lXHX1.9.7.u.",
"U J z J y.u.G.xXP.aXbXk.4XbX5.$XcX~.0.XXI T xXyXj D.K.K.rXJXAXSXCXCXSXJXMX0X2X].S ! / { l.A J u.~ aXyX$XpXg.^ uXU.yXvXV.3.V.{ ( ",
"A A.^.8 J Z.i.Y pX;Xr.3XFXB.2.jX$Xl ).V.O.zXI.T F.D.0XnXAXLXPXPXIXIXPXLXAXVXeX+.4XH A A. X8 a n.u.l ;XXXE dXvXj.pXjX X2.4.lXHXpX",
"R.f.g.Z R Z.c.4.%Xf.U.pX7.R.r.*XOX2.9.@XhXk.u.Z.K.qXAXAXAXUXIXPXPXPXIXUXUXZXIXwX2X..$Xk.Q [ s S. XB.XXb.t.jX8.x.R.=XR.p.4. Xh.a.",
"a.S { ^ a n.jXE.1.r.V.Z.3.0.<.oXV.I 9.oXU.Y.e.J.<XVXPXJXAXsXnXCXSXAXnXnXVXAXLXPX0X..! W k.O.n  X;XS.x 1.d.n.n.!.f.7.5.e.0.0.7.5.",
"D F L K A f.XXT.a.E.c.F ^ ).v.0.k K.pXj a Y ! 2X#.wXIXAXrX$.>X>X2X2X>X>X:XnXIXUX6X$.+.r.r.m ( n.+XA.b.XXV.I E =Xv.t.r.z.jXz f t.",
"m Y i.<.e.E b.b.Y z U.F.i.E.t.l 8XkXA.B.S.z.,X6XSXZXrX..6 - = = 2 6 = - = q >XMXUXnX#.^ b.j.Y Q b.C.T f.OXb.W R.n.f 1XvXK.3X8X+.",
"s.J ^ n.d G W D T N.3.I j Y.e.3XcXS.f ^.A.H.qXqXsXNX@.O t &.=.*.*.*.:.-.u - $ 0XAX0X$X+.W m.9 I Y b R C.s.a _ T.T G.zX$XG uXpX} ",
"&Xl.f 4XkX3X8 n @XN.$.0XiXE f pXXXa _ ) b n eXeXVX0X0 - ;.{.gX{.{.}.{.gX{.%.O ..eXwXJ.H.x f.kXO.9 P $Xz m 9X@Xi.W jX$X8 ) ~ 8 l.",
"f.k 3XxXdXK.9 7.C.F fXdX3Xr.d.B.z G ^ L F K 8XrXnX>X  *.}.'.'.gX-XgX}.'.'.}.t q 0XwX:Xl 8XSXdXH B +XC.1 `.lXI.e.&X).j K a.( D ~.",
"8 1XFX].a s f.k.S &XA.g D W +X) m ^ T P Z.J J.0XnX>X: >.*.* r [.gXgX] o : }.&.' qXeX$.`.FXiX9 x k.f.g ~.$X1 R ^ Q.[ b u.{ n m.T ",
"J.DXV.k 8 c.c.A @X Xg 8XlXK s W D l ) n ^ h.+.0XKXnXp >.*.o : {.gXgXc   : }.=.<XUXMX..SX].2.b n.W.b R.OXs +.zXO.8 L Q i.Q A j ! ",
"vXa.2.3.T G.D C.].' $X#XL D n { g ' K.J 7 FXeXeXmX0Xp >.}.'.'.{.gXgX'.`.'.}.%.:.nXrX@.K.x T.J g.q U.@Xd l.hX[ n m s.d.9 D.8 @.8X",
"v.S f.3.m m z ~.] v :.K.2XqX8XqX#.: c `.K.wX6XrXNXrXX.-.{.gXgX{.{.{.tXgX-X}.=.#.qXnX6X! E 7.Z 8 Z uX[ a q.R.s H Y z O.$.yX..FX2X",
"J j y.J A I h.w c | - t tXIXPXVX= t y '.DXb 6X0XsXCXrXi -.{.gX{.{.tXgXgXtX=.o.2XnXwX6XO.y.a D ) g.~ Q I T ~ r.@X{ 1 0XDXZ LXJ.8 ",
"m.Q.E y.Z.c.8.h ] *.- t tXPXLXMX= t t [.2X^ fXqXeXZXNXN t ;.{.gX{.gX{.{.=.t >XNXZXrX6X$Xg.Q C.T.0.B.E.C.~ e.^ xX! 9XdXS [ HX! 3.",
"0.M.f.E.E.R.oX[ p - - t 7XIXPXMX5 - t | j E.J.wXMXUXNXN = %.,.gX-X-X{.;.y = 0XKXCXsXkX4Xj.pX#X.X=Xl I.HXfX^ HXX.I zX9XL HX{ g.&X",
"0.y.N.R.Q f.=Xh = - O O <XUXKXrX= - O  .V..XJ.:XNXIXnXe + - y =.>.,.=.y O X :XCXAXmX6X_.|.W J f.OXW.j.d.lXaXF.sXyX1.6XLXg.1.pX/.",
"! I 5.|.W.f.k.+.#     o :XNXNX>X. X O } 3.j 1X9XwXAXMX` @ 1 ] p y y &.C . 1 6XAXCXCXsX8Xa T A.v.u.GXP.W GXxXx GX%Xk.zXjX2.E.l.Z ",
"n.d.d.c.|.Z.~ 1XV & | 6X@...$.sX8X;   K.iXNX6XrXsXAXMX` @ ` 0Xo.p i <X<X@ @ 6XCXCXnXwXO.j.Z.c.M.Y F.yXzXyXz lX3XU.vXiX1..XDXaXSX",
"|.Q.W E <.n.Z.l sXK.H.8X#.  ' hX].l.r ].iXsX9XeXVXAXNXe . M qXnXmXmXMX<X@   2XZXAXeX6X_.*X^ Z Y.B.x lXjX1.8XxX5.Z.;X#X1.q.8XfX9X",
"7.E T b.y.) ^.@X$Xl $X$Xh   } XXB.<.x.x.s.3XZXJXnXVXCX`   & >XBXBXKXCXo.. O 6XVXCXMX0XqXO.T j.j.&XZ.U.4Xg.hXx.q.1.Q..XM.M.e.l 1.",
"l L U m.Z.J S.+XE u.W.g.: - | oXk.a 5..XC.@XqX0XeXUXNXw X # >XKXKXKXCX@.@ . @.VXAXeX6X4XF i.C.R ;X$Xw.t.M.u.u.XXT.Y.p.( XXW.0.OX",
"s d.b.F m j.OXW.E .Xk.G r - | (.z ) @Xc.Z G.J 6XMXZX1XP   ' nXIXNXKXPX6X# @ 6XZXUXeX[ 3XL.a L A.&Xj.j.+XY.( ) *X@X0.1.Q *XW F g.",
"F.k.~ U L R m.b.b.J f.b.H - ] 4.z 8XzX|.L.+.< w 0XNXD.D.o X.IXLXNXZXPXrX  X 0XIXCXX.* [ ) ^ { a.G.b.W H d.m.( E.d.i.y.z.;X^.Q.^ ",
"g.R 8 P.~.Q ( S F y.n.y.P O c `.aXzXS.<.P.r $ . h 2XH.z.: 6XPXIX$.nXPXSXi # 6XAX<X# + . 2XxXj F ) G ~ a.u.~ S M.Y.I 8XcXW n.L.L ",
"U ; iXsXz ~ F 0 A 4.f 0X:.- u [.vXN.a U +., > & X e J.} K.UXPXUX4 6XIXPXsXq X. ., + e   9X2XZ a.L 1 s.d.O.SXxXb.Z ].bXO.F y.G P.",
"U sXaX^ G G H $X%XD D.'.}.*.&.;.}.} ( ) q $ ..C 4 . ; o rXPXPXSX4  .AXPXUXV < . % M ' w X [ Q S 8 %XA.7 R yX4Xa.x.I.[ b ) / A k.",
"d IX8Xa A b R ^.H.yX].=.}.{.-.y %.} ~ K.@ > ' C w & . X rXPXIX2X@ o 0XPXPX6X< . # w V ` . 1XO.8 ) z.[ _.V.8 ! Q &XN.b T { h #Xd ",
"fXdXL H.iX^ u.Z Z pX .&.}.gX'.t %.:.D...q C ` % , 0 4 . :.IXBXe     @.IXJX:X4 < 4 X 2 M N 4 ! ~ b.b z.*XO.h.+Xs T F.J F ) S I.J.",
"yXE D.DXiXy.Y b $Xc.z -.;.}.:.%.=.p + < C V M < + 5 M % C 6X@.@ X + M 6X:X4 q N q @ > N V X P { K h.@XH S OXZ.! B ^ n.A f.8 b $X",
"H.[ zX].f J s L.uXR ].[.&.%.%.;.tX] & > M w V q $ $ M 4 w w , . $ % @ q N 6 q M % % q w w 2 H ! s &XR.9 l OXS g.K j.L.b k.h.P d ",
"cXzXD.^ F.y.h._.^ v.E.s.r O - &.eX:.9 < V V V 0 + $ e M ` N 3 < 3 0 @ M :XM w w % % e N C w % ; g.c.R.N.u.G.d f.{ N.s.b P.lXJ +.",
"t.Q.y.8XpXW ~ z A 6.m.S e - = 2  .+.N , i V 5 + + 2 M w C P q , 3 4 @ @.MX .0 0 2 . , e C V 2 & 9 N.L s.E.b / B.4.g.s +.cX^ D.GX",
"p.1.pXaXQ 8 K ^ k.R ! S v &.t . @ N N q V V q > + 2 M w V V w 5 3 2 # :XAXX.5 w 5 + , q M V w 4 4 J n T 3.! r.k.3.i.Z +.cXR DX8X",
"L.g.U.U.e.T s.t.<.W e.a.' t c #.N > 5 V w w w > $ 5 w w V C w 2 2 2 + #.CX .5 q 2 @ , q w M M 2 # { 9.R R ^.x.t.{ T.m.! jXHX8XA ",
"y.G.F ^ F.t.q.R.~.s.c.k. .*  .cX .2 6 i w q 5 + $ q M M ` C w 4 5 2 O #.MX .5 w 5 @ > 2 6 w q % X 8.&XxX8Xs.c.v.lX%XY { vXiXs.Z.",
"g.D n J a I.zXd.x.dX3XH.uX+.^ xXH % 2 5 5 , $ + $ q w M ` C q 5 2 2 $ #.CXX.2 q 5 + , , 5 2 , % $ h.W zXFXL pXF.iXb.O.FXuX<.0. X",
"Q L h 8 d F.DX8X^ I.sX9XsXqXyXk.0 > 2 2 6 $ % X , q i M V ` q 5 2 , @ #.CXX.5 q 4 % $ # # > 5 # X `.) W hX%XGX%X2.^.vXbX<.0.W.y.",
"7 &X XD ) y.a.zXA.I.FXF.S HXhXs.: $ 2 , $ O X + % q 5 3 e ` w 4 2 4 # #.CXX.2 5 0 X + @ > > X % ! yXyXiXlXD.zXpX1.pXzXY.5.B.z d.",
"U.N.s.F J b.U y.pXcXF.D.kXA.d.aX: @ # > > X + X 2 q 2 $ M ` M = 2 4 # #.CXX.% 5 w $ + + o @ X ; G.l *XhX1XwXdXc.5XhXXXx.c.uXlX^.",
"@X{ O.^ d C.W.x.hXU.j.uXjXv.l uXK.&     @ X ` e 4 2 2 $ V ' e $ 2 3 # >XSXX.% 3 < q i $ X . * ] E.t.R.9.F.zXA.3.pX+X4.r.R.iX$Xn.",
"A R F.y.L H.+XT.B.e.A.Y.1.#Xl #X@XR ; o o r eX#., % 2 $ V  .w # 2 3 # #.CXX.$ 3 < w :.V = O r ]. XB.u.4.Q.R.5.0.n.0.M.e.+X3.U d.",
"m ^ Q J ! D.&XB.i.S.5.i.<.0.9.OXe.R | } D.K.6Xw , , , $ C X.e + 3 2 $ #.AXX.X % 6 $ 5 :.=.%.' d.c.(.g.d.OX~ m.(.u.E v.XX_.Z a.b.",
"W g.Q ~ r.y.C.C.E Z.OXj.~ E.Y.M.D.iXuXs.z h.R + & 5 2 , ` ' e = 2 3 $ #.AXX.+ % 3 X * } `.[.! n.Q.E.r.b.W.Y y.!.n._  X;Xg.a.f.j.",
"OX[ Q Y.l G ~ G I H.B.E T B.a.a.hXhXA..XXX@Xh o , e = 3 V V q 5 2 3 O #.AX@.# % 5 # o W s.C.F R u.j.d.~ S <.x.T.U j.+XZ.~ &X*XD.",
"k.l.f.G.8XU.L T #XN.[ K.P.u.I uX*X^ I G.Q L ` O # 3 2 q V V 5 3 2 2 X #.AXX.$ $ 4 < & S.k F.LXK.r.L.b.r.s.T x.i.E .X^.Y i.b./ ~ ",
"~ 1.6.pXvX2XG &X].A U.zXyXR W #Xz.n J ~ s n } # # , $ q C ` 0 O 2 % X #.AXX.O # 2 > 4 [ G.hXyX{ S E.E ^ *Xg.a.~ XX#XW y.d.! 7 @X",
"8 $X%XoX} 8 y.@XZ c.OXz D { .Xi.8 ^ ^ S n.J '   X , $ 5 C ' q X 2 $ . #.AXX.# # % > & +.LXuXa A W c.r.W S.V.I r.|.f.g L.G.n S.} ",
"} xX+Xz b Z.W.8 S.*XR K.uXH W ~ D W E a C.H P * $ $ + 4 `  .q X = # . #.AXX.X X , > * kXfXf G y.#Xs V.F.j  XQ s.j.~ W n.( a c.Q ",
"FX2X7.1.Q n.~ ! ).{ T ~.N.D b r.F Q G.a K K., < 2 $ + , ` ` 0   % #   $.SX .X X 5 < * ] d 1.T k.! ! f.Q l W.S ^ S ^ u.J ^ d K 3X",
".XD 6.v.Q n / zX+.b W.A.1 8 d D.H ; 8X3XN & . = 2 , , 4 ` C 3 X $ X   X.CX' # X 6 < $ . f Y.Q A 8 xXK.G m.j A T F s.W ! DXH DXeX",
"k ( M.r.m A g.D.A ^ a.y.E i.Q s wXfXg qXaX..# o # $ , < V ` 5 . # X   X.VX' & # + X $ & J l A / { k.g.~ j.b.Q sXD.* 1XDXO.ZXsXr ",
"d.W.) G s.k.m.d.z.l ~ ~ t.^.T 8XaXO.} HXlXm [ @ . + # $ V ' w   X X o X.MX' # . . X & ].].~ r.L.Z.m.T.r.e.|.H cXG...xX3Xb PX+.f ",
"|.f.f.oXW.U.#XR.Z.lXP.K.kXR 8 GXD./ GXdXA f.&X[       . V  .N o X   . ` 2XM X .   ; 8.P.G.m. XXX#X6.@XcX8XE SXK.I LXkX9 DX6XT @X",
"1.B.Z.Z.s.k.&X1.e.^.eX8XfX3X8X3X`.kXaXR 9.OXB.S.@XK.0   2 0 ` `.8X9X| & q $   K.G.d.7.x.u.Q.R.C.;Xd.^ yXyXeXfX6XL.m.J.kXqXk pX*X",
"uXU.b.c.6.d.C.uXs.1.GXqXf LXxXe.DXGX1.x 5.i.y.U.T.H.P > o   h HXuXf ].o o @ . g.d yXj.E T.E.t.<.A.xXg.k FXxXf vXyXx dXLXx M.^.E ",
"SX{ d.Q.OXM.a.ZX].pXbXK.3XpX2.pXxX$XT.Q.K.a.M..X].h.` 6 o   | kX8XJ.z.o   6 < K.I.vX`.A <.T.y.v.w.sX8XyXkXh.D.uXU.dXzX~.0.%XK...",
"j m.Z.e.y.b.i.~ xXvXy.8XcXv.1.jX~.2.W.bXHXFXU.qX6Xr   < 6   [ } J.FX' < . , % # M 8XcX8X~ w.y.L.j.j lXzXk F.GXu.$XvX_.2.0.xXDXDX",
"Q.T.j.b.r.^ T.c.xX4XU.$XN.$Xs.%XXXM.u.z k.+.` h : o X O O   h U.&Xb.3.>   o $   . 9 h P F.G.F _.A.x.pX5Xu.zX5.M.7.*X.Xp.v.d.r.i.",
"0.d.( T.c.W XX+Xd.I XX~.i. Xd. XQ.w.Y.|.B.j.! f..X^ ) #XXX^ ~ /.Y.y.E.T Z.^.U i.f.S T.t.G j.j.Q pX&X<.w.n.&X<.).x.Y.Q.t.0.|.Y.5.",
"w.L.S x.n.h.+XE.m.|.6.U d.).0.|.s.Y T.8.r.M.T _ Q.c.W %XE.v.&Xv._ y.XXoXOX1.D.DXzXlXP.t.) G j.oX+XC.n.=XE.Y i.(.oXq.t.^ |.z R d."
};
