/* XPM */
static char *exit___________1721849559[] = {
/* columns rows colors chars-per-pixel */
"64 64 256 2 ",
"   c #010707",
".  c #031605",
"X  c #000213",
"o  c #02061A",
"O  c #061817",
"+  c #181C18",
"@  c #162818",
"#  c #173816",
"$  c #0D2B0F",
"%  c #233017",
"&  c #060B26",
"*  c #09142A",
"=  c #151B27",
"-  c #0B1735",
";  c #161C35",
":  c #050B35",
">  c #192727",
",  c #192638",
"<  c #073635",
"1  c #0F332D",
"2  c #27272A",
"3  c #232939",
"4  c #283737",
"5  c #2A392B",
"6  c #2A1D24",
"7  c #18461B",
"8  c #264914",
"9  c #184527",
"0  c #194838",
"q  c #185538",
"w  c #09522D",
"e  c #264926",
"r  c #295829",
"t  c #364738",
"y  c #2E5632",
"u  c #176C34",
"i  c #276939",
"p  c #366739",
"a  c #287639",
"s  c #34773B",
"d  c #356925",
"f  c #177016",
"g  c #47722F",
"h  c #465439",
"j  c #111E44",
"k  c #1A2644",
"l  c #0E344A",
"z  c #232C45",
"x  c #283649",
"c  c #343A4A",
"v  c #2A3954",
"b  c #343D55",
"n  c #232C52",
"m  c #2C3860",
"M  c #0B4846",
"N  c #18494A",
"B  c #195747",
"V  c #184755",
"C  c #1A5952",
"Z  c #0A5252",
"A  c #254647",
"S  c #384448",
"D  c #275848",
"F  c #384559",
"G  c #285756",
"H  c #305253",
"J  c #19674A",
"K  c #176E4D",
"L  c #28674A",
"P  c #34684A",
"I  c #287748",
"U  c #377848",
"Y  c #276756",
"T  c #366854",
"R  c #287558",
"E  c #367857",
"W  c #3B4964",
"Q  c #2D5064",
"!  c #337466",
"~  c #186062",
"^  c #444A4C",
"/  c #454B58",
"(  c #4B545A",
")  c #54575A",
"_  c #455746",
"`  c #4C7053",
"'  c #454B67",
"]  c #495569",
"[  c #555968",
"{  c #4A5A75",
"}  c #535D75",
"|  c #424373",
" . c #58646A",
".. c #586578",
"X. c #4E716F",
"o. c #646A7A",
"O. c #6A757B",
"+. c #737A7C",
"@. c #666D6A",
"#. c #63735F",
"$. c #433F72",
"%. c #807B7F",
"&. c #378839",
"*. c #389738",
"=. c #2A8B33",
"-. c #37AB33",
";. c #208C1B",
":. c #459538",
">. c #508E3A",
",. c #58AC3B",
"<. c #59B93A",
"1. c #49AB36",
"2. c #67B33B",
"3. c #4AAB1F",
"4. c #5CC93B",
"5. c #73CC36",
"6. c #7FEA3C",
"7. c #388948",
"8. c #399648",
"9. c #398756",
"0. c #3A9555",
"q. c #2A894C",
"w. c #358864",
"e. c #32A146",
"r. c #478849",
"t. c #489848",
"y. c #559749",
"u. c #478757",
"i. c #489956",
"p. c #579757",
"a. c #55874D",
"s. c #669851",
"d. c #4AA744",
"f. c #56A948",
"g. c #59B649",
"h. c #4AA757",
"j. c #59A857",
"k. c #59B658",
"l. c #47B34C",
"z. c #67B646",
"x. c #75B947",
"c. c #6AB858",
"v. c #75B958",
"b. c #6AA853",
"n. c #518F69",
"m. c #6E926E",
"M. c #50A564",
"N. c #68A865",
"B. c #74AF6D",
"V. c #6AC649",
"C. c #77C747",
"Z. c #7AD547",
"A. c #78C854",
"S. c #72D154",
"D. c #7BC769",
"F. c #74CD6C",
"G. c #61C957",
"H. c #87DA38",
"J. c #86E23A",
"K. c #8CBA54",
"L. c #8CB375",
"P. c #8B9B78",
"I. c #86C849",
"U. c #86C755",
"Y. c #86D656",
"T. c #93D857",
"R. c #8ED54D",
"E. c #8DE54E",
"W. c #ABEF55",
"Q. c #89D668",
"!. c #8FCD71",
"~. c #A9D975",
"^. c #95E869",
"/. c #ACEF70",
"(. c #CAFA77",
"). c #81B934",
"_. c #5A6B83",
"`. c #5C7386",
"'. c #697787",
"]. c #747B87",
"[. c #6A7893",
"{. c #6E748E",
"}. c #4F5985",
"|. c #817F8C",
" X c #798589",
".X c #798695",
"XX c #6D9188",
"oX c #78A989",
"OX c #788BA3",
"+X c #7ECF80",
"@X c #858A89",
"#X c #848B97",
"$X c #89949B",
"%X c #969A99",
"&X c #8C9686",
"*X c #90B08F",
"=X c #ABB398",
"-X c #8A98A6",
";X c #939BA5",
":X c #909DB0",
">X c #98A5A9",
",X c #9AA9B6",
"<X c #95B1AC",
"1X c #A4ABA8",
"2X c #AAB4AB",
"3X c #A5ACB6",
"4X c #AAB7B8",
"5X c #B4BAB9",
"6X c #B3B8AB",
"7X c #A19CA7",
"8X c #96C887",
"9X c #93CD8D",
"0X c #ACD28F",
"qX c #B1EA91",
"wX c #B9C2BB",
"eX c #B1D3A9",
"rX c #BCE4A7",
"tX c #B0EAAC",
"yX c #99D2A2",
"uX c #CAF494",
"iX c #C5C9BC",
"pX c #C6DBAC",
"aX c #D0F2B1",
"sX c #E8FFBA",
"dX c #EEFCAF",
"fX c #DDF391",
"gX c #B5BAC3",
"hX c #AFB7C6",
"jX c #96AAC0",
"kX c #BAC5C6",
"lX c #B6C7CD",
"zX c #C5CBC7",
"xX c #CCD4C9",
"cX c #D4D6CA",
"vX c #C6CCD5",
"bX c #C9D5D5",
"nX c #D7DAD6",
"mX c #D7CFCC",
"MX c #D7F8C9",
"NX c #DDE3D8",
"BX c #D4EDC9",
"VX c #E8FEC7",
"CX c #E7E8DB",
"ZX c #F9FCD9",
"AX c #EFF7D1",
"SX c #D1DBE3",
"DX c #DAE6E5",
"FX c #E7EBE4",
"GX c #EBF2E7",
"HX c #F7F8E9",
"JX c #FCFDF4",
"KX c #FCFEFC",
"LX c #F5FCF9",
"PX c #EDF4F3",
"IX c #E2DCCE",
"UX c #C1BBBD",
/* pixels */
"r.8.R i.y.E b.C.Z.B.n.u.%XoXw NX0X` =XuX*Xu.k.i.u.E U T.n.7.S.b.~ u.5.2.H.j.q.4.p.P T p.9.Y N.E j.5.T.*XM.u.m.&XD eX2XA dX*XL p.",
"D D K G M XXtX7.7.qX*X=XrXp #.yXm.=XtXu 7.qXi.y.R.s.q 7.d.E M T 0.q.Q.p.R.I I W.N.T P D G H G V.W.u s pXwXoXVXm.L Q.*XXXrX&.5.H.",
"c.G l H G w.+X0X9.a.sX*XL VXuX7.pXuX8.0.4.i p.v.C.` E 9.! Q D 8.j.R V.9.=.u.*X/.!.Q.Q.L j A G h.z.9Xu.J uXrXB sX+Xd rXAX&.3.V.i.",
"~ P p H u.q.n.aXN.0XuXa.XXuXz.!.dXD.5.Q.J P BX9Xu 0.0.D l r.j.0.` T &.g.E eXdXB.Z U G s y.V Q 9.I eX!.!.tXa.! 0Xc.!.sXK.*.z.u.L ",
"N U.F.M D c.I a qX(.7.*XVXg.*.(.!.=.H.x.X.aXB.L d.M.~ 0 x.E.w Y VXaXh.w <XsXr.l ! C V K.D.l 0 y.0.7.(.T.I aXAXt.8XfXv.-.d.aXMXqX",
"I.r.9.M T c.f.1.W.t.N.qXx.V.&./.E.*.3.U.uXn.8.V.g.Y G G.V.u.m U.B.l u.S.E n.U N ! 0 L.N.L ` 0 N.K.f.T.i.8.fX2.f.H.W.A.e.f.K.a.9.",
"w.B ` ` 0 j.uXY.&.U C.j.:.H.7.R.C.K 1.R.B.4.q.h.Z.u.Y g.K < rXL.a r.B Q.E Y r.V 9.N P s t.! 0 A.(.K.u =.t.j.f.R.y.2.<.7.C.5.z.1.",
"V G ~ N N y.E.V.w.Y.f.C 9.5.,.5.w m.qXu w i G ! V.l.K ! q b.!.l E W.< t L E V p T.!.A L U l G t.T.z.t.I.2.J q.H.k.-.:.f.fXi w 9.",
"j K q.q.q.R h.h.K L B.M.=.V.d.=.*X0XB.g.j.b.Q N U K M X.0XA.l y 5.5.0 - ` p 0 >._ P # 9 ` i r 0 U w.p g v.` i 2.M.w m.VXm.oX1XX.",
"t.G E d.B V U C i b.y.C J g.a N.sXB.L D.v.b.D l V u.D P uXu.q 0XeXr N < d e 1 7   O 0 $ # e $ 1 O O @ 8 e 0 0 >.q X.rX9X9 tXqXP ",
"E.u.w m.xXoXM , U.s.n.>X~.U Z qXT.e C ! l < x.a.; *XBX#.U.T 8XI.1 * , @ $ $   > @ O c 4 > 4 2 O O 4 t 6   O # 7 9 K.B.1 u E < a.",
",.J L.aXtX`.< 2.N.C 8XpXoX9.t.x.D M E G ~ V Q.a.: T ~.~.U.y.` t % 5 + @ 5 c c x x 3 ; 3 , , c x / +.P.%X3X*X`   # 8 @ 1 s Z V B.",
"O *XMX!.1 N y.j.C ^.x.p Q U ^.E l E L G c.0 u.k.V q ;.>.5.d . % h t c S F ' ' ' ' W F v 3 ; * & * * z [ ;XvXCXmXP.6   @ x 9 i.P ",
"oXIXA.w M j.f.< Q.5.r *XeXV N U D a R l U n.G l.v.a i # d . % 5 c ' ] / F ' ' H H c F [ ..[._. .b n n * X o [ 7XGXHX&X2 X O 9 G ",
"dX! ;.>.L w.V z.R.r D.!.Y v l u.A q n.B - MX` < :.P 1 $ @ 4 S ' F W b ] } } ' c ] $X2XiXwX>X-X-X;X.X} x , o   X O m.LXHX+.  5 #.",
"g.B y.f.l n p S.B T A.&.l 4 D R X.T 8.j. X6X .y 1 O O > c / $.W S F ] ] ' b ..1XNXKXHXIXCXxX5X6X2X2X>X]._.[ +.%.{.{.=XCXFX) ^ t ",
"D a 7.P V C 0.P y I T L I I u.H rXoXy tXBX> P s.5 o 3 W / b c b W { ../ b O.kXNXFXCXxXkXzXkXkXgX;X;X6XnXCXJXHXGXgXzX2X@X2XbX^ . ",
"g.c.9.E b.,.c.V.x.u.i.p.d.e.=.MXoX@ *XaX` D d $ > 3 F b F x v W X...] ..gXFXxXiX4X$X'.'...[ / ( %XnXFXmX7X@X) + ) 5XgXxXIXKX1X. ",
"Z.d.:.Z.Y.C.Q.,.d.MXn.a.rXu u eX` m.eX` # d % = 3 S v z , x } '.'....XvXbXwXkXkX`.F ] W W b ;XFXFX1X X'./ ; o & 1XxXPXJXJXKX X@ ",
"5.7.z.A.T a.E.2.q.!.MX=XN.eX*Xy {.=Xa.# 7 % + z ' F v , S ......]  XlX4X>X4X$X/ H ..`.F ..NXFX1X+.O.'.] v o & |.nXHXJXKXNXgXc . ",
"C L g.R.U.j.N.BXr.f aXyXp 0X` 9 ^ g $ $ @ 3 ; b W F F ] ..[ F S '.:X$X.X,X XF F ] ] x @XHXxX@.[ .X_.v k o X [ UXHXJXPXzX2X3X] O ",
"j.l.8.j.R.1.R oXqXrXj.m.=Xg $  .P.@   % 2 j z b x x ] .X[.] F  X-X.X.X-X..x b W | x %XJX6XO.o.o.{ n ; & o ) zXmXmXxXzXyX4X4X..5 ",
"E.V.q.L I k.k.a aXqXn.L.K.r 5 6 @.].= 2 ; j 3 x z W ....b F .XkX>X.X.X/ k W W W 3 >XKX$X].[.#X[ k , X X @.mXKXKXgX%XlXkXlX,X' 5 ",
"x.L L j.7.! D.S.!.K 8X!.r p 5 2 } #X6 & ; 3 n k F [ / c v {.3X>XwXkX;X].] v v , &XLX#X].].'.' 3 * X + %.nXKXDX^ @XzXSXbXDX-X..4 ",
"E L Y c.N.q c.W.a 0.G.s y d . z 7Xc o & - - ; ' } ] F x ].hX$X$XwX-X'.kXeX;X( +.LX$X'..X{ W k & X 2 %XIXJXCX[  .;XbXvX[. .[..XA ",
"0 8.h.G V u.^.v.R A.r.0 r #   + 6 & - ; & * z / W F F ].,X-XOX>X>Xo...OX,X3X>XLX5X..o.b j , * X / 6XGXGXJXPX>XhX,XvX] O X ; ..> ",
"M.M.K J Y E j.t.u.q p y   . =X) X & & - ; n b z z z { :X-X.X-X.Xo.'....X>X XnXDX} ] z ; * & ; {.iXGXKXKXnX>XXX[.hX] * '.[ & c @ ",
"9.D l N.c.B Y 0 4 9 $   2 iXJXgX  X ; : j v z c k b o._.] XX-X'...`...} '.2XLX@.k ; : & X c %XmXCXJXLX4X..{ OXjX'.x { ( ;X.X; $ ",
"L 1 2XeXr J 0 & O . @ o.HXKXHXJX6X+   * - j ; n F '.`.W W ] W ] [ H ' z } LX>Xo ; : o X  .nXiXnXKXPX.XF X.[..X-Xk z ] ].gX|.= % ",
"Y yXeXP < < . % #  .%XHXJXHXHXnXHX5X) X o ; - j W { W W { F k v H W b c vXKX2 o o o 2 |.HXiXiXCXvX..F _._.`.OXQ F X.F  X+.o.2 @ ",
"D MXXX1 @ X O #.1X3XCXJXJXGXwX2XmXFXNX7X/ X & v m k v F F A n x W ] k '.KX+.  / c ^ 5XHX6X) SX$XQ { .._.{ `.#Xz ( #X ., ].@X> $ ",
"0X*XH 5 # 4 |.5X6XiXJXHXCX5X5XxXxXzXmXKXJX5X..z & - k n j k n k v m ' LXmX  ) KXJXKXGXJX1X5X.Xx { ..} Q { OX[.- ^  Xo.^ +.[ O t ",
"*Xe % t #.%XwX3X=XJXKXbX3X2XxXcXmXmXIXHXHXJXHXIX|.( ; & & : j j * * vXKX^ = DXPXbXzX7XNXSX`.m ! }.F ] $XbX>X..X ) 2X_.[ mX2 X a.",
"` e t ^ %X1X>X>XGXHXzX<X4XzXcXxXiXnXGXHXCXGXHXHXKXKXzX@X[ b ; * o o.KX5X3 ) ].].&X2X2X>X{ W W W W '.FXLX#X{.] o ) 3X'.4X' o > e ",
"oXg 5 ^  X4X;XbXPX5X1XgXzXbXbXzXzXCXHXIXCXCXGXHXHXHXJXKXKXHXnXxX2X6XzX@XiX[   ].LXSX.X{ W W F H hXKXgXc ] }.; X | bXkX X+ y > H ",
"9 $ @.[ .X4X2XnX5X6X5XlXzXbXzX5XCXGXHXCXCXAXCXHXAXHXHXHXHXGXZXJXcX5XFXIXcXFX#XjX,X....{ Q b { FXKXo.z ..F o   O   , '   h # ` dX",
"$ _ [ ^  X,XkXwXkXkX4X4XzX5X2XzXGXCXCXGXGXGXGXCXFXCXnXxXzXNXCXcXiXGXHXFXxXDXlX_.}.XX{ v n :XLXhX' c o.4   . $ # % . X % m.t aXP.",
"@ 1X|.3  .kXkXkXhX>X>XkX5X1XiXHXCXIXCXGXFXCXIXcXmXkX5XzXNXCXcXxXHXJXFX1X2X>X{ } `...A x hXLX#Xz } [ . . @ ` d 8 5 d L e ~.IX*Xq ",
"+ >XgXX / bXkX<X;X>XwXwX1XzXFXGXIXnXCXnXxXiXiXiXwXwXnXGXCXmXCXHXHXJX$XS -X{ ..`...v F bXbX] W  .2 . y a.#.p ` :.L.K.u T sX*Xa.b.",
"@ ].vX.X].4X>X;X$X4XlX<XUXFXHXCXCXNXmXzXxXkXwXwXiXCXGXcXmXAXHXHXKXJX5X,X[.} `._.v ..kX$Xc ] S O 8 # % =XeXd tXi.9Xp.X.BX0X=.Z.I.",
"  O.lXSX:X>X3X:X<XzX2XwXCXZXCXCXNXbXzXzXwX2XwXnXJXNXiXcXHXHXLXPX;X{.gX3XX._._.W `.>X[ W [ @ X # g B.! U /.0XVX0X-.G.dXaX&.H.v.8.",
"   .hX.X]. . XlXSXkX5XDXPXFXFXnXNXxX5X6X6XnXJXKXFXmXJXJXHXHXSX/ & X 3 [...{ { }.O.W } b   O > r r oX&X0XuXn.sX(.=.qXsXz.1.2.a t.",
"5 ^ 1X%X X'.F H %XCXKXKXCXnXCXnXcXiXiXCXKXHXFXxX7XUX%XzXFXgX3 ; ].'.X x '.{ b ' } ^ + . 8 0 1 s 9.a ~.uXm.4XrXd.!.uXT.d.j.0XrXD.",
"h ) $XKX1X.X-X..2 ) @XDXKXCXIXIXGXxXzXvXgX>X@X^ ;X/ ^ KXLX' W { #XO.' k ' b [ [ c $ . 0 p 1 A v.A.0.V.,.p.sXc.&.qXW.:.w.A.qX8Xj.",
"  ) ].4XKXSX XOX[.V z / @XnXJXCX;X[ ' k z v x / o. .KXLX].O ....S 3X,X- { ] / O . 5 1 D U < G B.R.z.7.1.V.5.2.Z.g.5.l.q.W.r.K t.",
"O + #XF F FXLX,XOX`..X_.' X.>XLXmX@./ [ [ o.%.#X$XPXKX4X> , * } 3X$X' b ] + . 7 $ , 0 L 9.u.Y i.,.J.u.d.6.R k.E.0.I g.T.K.M R h.",
"y . 1 } 3 X  XLXLX,X`._._.Q v OXKXLXNXNXFXnXmXvXSXlX3XF , ,Xo.[ O..X$X6 + 5 # r u U a.N t.z.0 j.A.Z.8.h.V.R 9.E.p.~ K.(.u.w.p.i.",
"b.e . 2 O.`.- > &XxXLXvX.X_.Q - F :X3X>X,X,X,XhX$X.X:Xv k '.#X[ c >X;X  t ` 7 a t.< U ! r.z.D Y u.i.0.R C 7.t.V.K i.W.g.R ^./.p.",
"i.p d % @ )  X' o &  .5XHXJXCX5X[.'.>XjXjXjX3X>X$X.X X, 3 [ ].@.c  .... 7 N.N.u u X.L.!.w M.GXM.9.M.h.7.r.L f.9.P Y.F.K 0.i.Q R ",
"L &.>.P.m..   #..X..: X , _.vXJXKXSXlX$X] W / c k `.{ X ..SX;X^ } GX6 8 7 L.eXB X.VXsXE n.aX9XX.C Z.I E /.E w.q.T.Q.T 0.d.T < B.",
"1 !.!.b.y 1 # $ O ) @X].F , o ; [.W k o o : & X W [.{ X z 3X..[ gX( . r a 8XoX! AXuXu o.ZXqXw 4 P f.&.E c.x.J 7.E.i.D h.w.4 N.r.",
"#.aX/.d 1 y.>.1 r 8   c @. ...' { `..Xo._.} c _.3XjX..X o gXhXnX7Xo 8 e v.S.I N.aX&.y BXyXw V 9.^.M x.j.i Y.G r.y.R E h.R N j.P ",
"sXn.2.>.J p.T D s.r # e $   > _ S @X=X1X5X5XgXmX6X@.=     2 ;X@.  . g # z.3.l./.5.M aXL.K =.B j.T T y.~ a U.D U Z I 0.Y ` 0 V oX",
"Q.Z d.g.C N G rX` 1 s.a.* O O @ .   @ + + ^ 2   . o . $ 5     . $ 4 a.w p.g.d.S.4.v./.G K V.Y N , aXm.Z c.u Z L G a.I T MX0 bXeX",
"B I e.w.l V 9.m.N U 7.U L L y @ #.+.= ^ @.2 S m.A O 1 r 8 5 1 9 e D U I Y N.0.I uXfXr.M E U N Q E p.u.L i.M.L eXn.O XXMXO.SXeX0 ",
"p.Z.! Q 9.i.z.d.j.I R Y *.F.L XX*XS P tXL.1 ` y.P q ` >.y.a.r s r.=.*.*.yXF.w u.fXn.E U.D.R E y.c.G.V.7.I Z.A VXn.{ aXN.l HX`.w ",
"E.t.s.R.U.B.Q.S.v.pXN.m.iXI < ZXm.m VXeXF y.Z.2.b.A.I.U.1.f.eXj.h.qXN.K sXoXY IXT.t.A.v.n.B.Y.W.^.,.Q.sX*XI xXm.q HXiX9 MXXXY U.",
"=.z.c.f.r.p.T.*.7.F.3X9X9X&X*XoXXXaX0XE 1.E.k.f.5.f.b.^.a E 8X0XL.qX0Xp.j.*XaXqXq.-.4.1.8.V.A.N.(.t.E 9X9X4XeXXXF.k.m.wX<Xu qX/.",
"0XD.t.,.f.:.B.0X9.;.ZX=Xw HXaXe.CXsX&.u <.=.u.v.c.p.w.c.qXR 8.ZXrXw (.v.f rXAX;.u F.7.a 4.S.8.&.x.aXn.w MXaX# AX+Xw BXHXq d.Q.w.",
"eX` h.S.Z.G.w.xXL.qX0X XoXqX*.qXaXK.V.G.n.X.j.R.F.Y.e.q.BXoX!.pX,XXX4.<.F.uX!.=.P.dX*XN 8.g.8.h.q.6XyX*XrXs.m.qXN.tXaXA.5.~.m.X.",
"B V.G.q.7.M.q.I MXdXE *XsXd.*.fXB.;.S.uXVXaXi.=.y.t.h.8.Y VXuXs B.VX:.=.uX~.u k.(.~.dXoXJ q.9.k.i.u pXsXf n.VXe.!.dXK.;.V.tXMXMX",
"F.g.0.k.9.I 4.h.aXn.F.!.,.Q.&.~.E.l.e.E u.L 7.S.8.B B.F.d.rXm.G.^.k.F.L !.^.e.-.4.Z z.1.w.0.G v.v.l.qXF.8.aX<.d.<.W.^.-.4.t.&.7.",
"5.i.K c.f.s T.W.>.q T.A.=.T.:.R.v.q.4.E.z.h.R f.S.U R Q.^.P E S.G.q.Z.L F.5.K *.1.Z 4.8.Z 0.n.L qX~.=.K j.qX*.R.:.G.V.:.Z.E.V.1.",
"w.M.G y.p.n.W.C.k.A.f.Y i.5.<.Z.9.I V.c.g f.Y A F.i.U /.A.g.Y.k.K w./.I.S.=.`.tXpXeXN.u.R Z i.A.W.j.y.R.S.K q.R.I.4.e.9.U.p P i."
};
