/* XPM */
static char *_dd7c365f48e41c2a1b0a60fadcef18a3QY12nfU5Xksclsr[] = {
/* columns rows colors chars-per-pixel */
"64 64 256 2 ",
"   c #01301C",
".  c #011835",
"X  c #053629",
"o  c #032839",
"O  c #063739",
"+  c #143839",
"@  c #0C262F",
"#  c #001D19",
"$  c #0D7119",
"%  c #044527",
"&  c #094738",
"*  c #17493A",
"=  c #095736",
"-  c #17573B",
";  c #0E5629",
":  c #25583C",
">  c #254F36",
",  c #1B6738",
"<  c #1B773A",
"1  c #0E6831",
"2  c #26683B",
"3  c #29773A",
"4  c #35793A",
"5  c #336E32",
"6  c #065117",
"7  c #051245",
"8  c #052948",
"9  c #083748",
"0  c #173947",
"q  c #133655",
"w  c #243D4C",
"e  c #153D60",
"r  c #094846",
"t  c #184848",
"y  c #195848",
"u  c #0A4958",
"i  c #194A55",
"p  c #195955",
"a  c #08564F",
"s  c #244948",
"d  c #265849",
"f  c #355B49",
"g  c #264A55",
"h  c #265856",
"j  c #375654",
"k  c #1A684A",
"l  c #1B6555",
"z  c #16704E",
"x  c #286849",
"c  c #37694A",
"v  c #2B7344",
"b  c #297849",
"n  c #367848",
"m  c #2C6D53",
"M  c #276657",
"N  c #356A57",
"B  c #297657",
"V  c #3B7C5B",
"C  c #377856",
"Z  c #165663",
"A  c #295A62",
"S  c #2D5266",
"D  c #1B6C62",
"F  c #2A6766",
"G  c #2A7765",
"H  c #367964",
"J  c #366D6D",
"K  c #446A57",
"L  c #447A56",
"P  c #49744F",
"I  c #467766",
"U  c #577B68",
"Y  c #597A77",
"T  c #4F6B6B",
"R  c #576665",
"E  c #49713F",
"W  c #188A12",
"Q  c #188133",
"!  c #288835",
"~  c #38883A",
"^  c #389738",
"/  c #2E8F2E",
"(  c #3CA73B",
")  c #38AE2D",
"_  c #3A9B1E",
"`  c #459539",
"'  c #4C9137",
"]  c #49A939",
"[  c #57A93B",
"{  c #59B739",
"}  c #4EB434",
"|  c #65BA3B",
" . c #67B236",
".. c #49A91E",
"X. c #5AC836",
"o. c #67C73A",
"O. c #78C93A",
"+. c #77D63A",
"@. c #6FCC2D",
"#. c #68EB3D",
"$. c #2A8749",
"%. c #388848",
"&. c #389648",
"*. c #398656",
"=. c #399556",
"-. c #298B51",
";. c #3AA848",
":. c #3A8763",
">. c #338E65",
",. c #1D814C",
"<. c #468847",
"1. c #489748",
"2. c #56994A",
"3. c #468856",
"4. c #548B59",
"5. c #489756",
"6. c #569757",
"7. c #55844A",
"8. c #649851",
"9. c #4AA747",
"0. c #56A947",
"q. c #58B748",
"w. c #49A557",
"e. c #58A857",
"r. c #59B556",
"t. c #47B153",
"y. c #66A84A",
"u. c #67B847",
"i. c #75BA49",
"p. c #67A858",
"a. c #69B857",
"s. c #75BA58",
"d. c #72AC57",
"f. c #498767",
"g. c #558A67",
"h. c #499564",
"j. c #599766",
"k. c #548E76",
"l. c #678A68",
"z. c #6A9868",
"x. c #679678",
"c. c #75997A",
"v. c #6E916D",
"b. c #57A564",
"n. c #51AC66",
"m. c #69A765",
"M. c #76A969",
"N. c #69B666",
"B. c #77B869",
"V. c #69A778",
"C. c #78A878",
"Z. c #75B576",
"A. c #5AC450",
"S. c #68C648",
"D. c #76C748",
"F. c #79D648",
"G. c #68C757",
"H. c #78C756",
"J. c #7BD656",
"K. c #6CD549",
"L. c #79C768",
"P. c #7CD566",
"I. c #73CC70",
"U. c #6AD860",
"Y. c #86DA39",
"T. c #8BE83B",
"R. c #B0ED3A",
"E. c #85B852",
"W. c #86BA64",
"Q. c #87B778",
"!. c #8FAC77",
"~. c #93AC79",
"^. c #86C849",
"/. c #86D848",
"(. c #93DB46",
"). c #88C957",
"_. c #88D857",
"`. c #93D959",
"'. c #92CD51",
"]. c #87E34A",
"[. c #88E455",
"{. c #97E558",
"}. c #96F34C",
"|. c #ABF356",
" X c #86C666",
".X c #88D767",
"XX c #95D868",
"oX c #89C678",
"OX c #97C878",
"+X c #96D776",
"@X c #90CF6F",
"#X c #A7D675",
"$X c #97E668",
"%X c #99ED6E",
"&X c #A9E973",
"*X c #B9F975",
"=X c #ABF069",
"-X c #A6D957",
";X c #CBFA75",
":X c #627A84",
">X c #729188",
",X c #79AB88",
"<X c #5FA197",
"1X c #76C282",
"2X c #899A95",
"3X c #8AB789",
"4X c #85A795",
"5X c #98B996",
"6X c #8FAE8C",
"7X c #91AFA8",
"8X c #A3B7B0",
"9X c #A8BB95",
"0X c #97C688",
"qX c #96D687",
"wX c #96C596",
"eX c #8DD28E",
"rX c #A4C799",
"tX c #A8D998",
"yX c #B4D898",
"uX c #ABD489",
"iX c #AAE788",
"pX c #ABE697",
"aX c #B7E998",
"sX c #B5F18B",
"dX c #A9D5AA",
"fX c #B4CFAF",
"gX c #BAE7A7",
"hX c #B7ECAB",
"jX c #98D3A2",
"kX c #C8F898",
"lX c #D8F998",
"zX c #C9F490",
"xX c #C7D7B1",
"cX c #C8E7A9",
"vX c #D7F9A8",
"bX c #C6E8B7",
"nX c #CAF7B6",
"mX c #D8FAB9",
"MX c #D0F2AF",
"NX c #E5FDAB",
"BX c #E6FEB8",
"VX c #F5FDB9",
"CX c #F2F8AE",
"ZX c #D6EA94",
"AX c #BCE1C1",
"SX c #CAD9C9",
"DX c #D8EAC7",
"FX c #D8FAC6",
"GX c #D2EFD0",
"HX c #E7FDC7",
"JX c #F8FEC7",
"KX c #E9FCD8",
"LX c #F8FED9",
"PX c #E7E9D5",
"IX c #F5FFEA",
"UX c #D9F8E1",
/* pixels */
"<.=.D 6.2.C d.D.D.,X6.7.2X,X& DXrXK rXcX!.3.r.5.3.C L '.6.n J.a.Z 3.@.u.(.e.$.o.1.4 c 6.C N z.V 0.D.'.0Xz.3.c.~.- fX8Xs CX3XM 6.",
"d y M h 9 >XkXn 4 sX4X5XgX5 U dXx.9XhX< *.sX6.1.(.6.- %.1.n t N =.*..Xy.F.B x |.m.C x y M g h S.|.< v cXfX>XFXl.b P.5X>XgX4 /.Y.",
"a.g q g d *.oXpX*.7.VX3Xx HXcX%.cXkX%.=.X.3 z.s.D.%.B *.F h x ` e.B S.%./ 5.4X*XqX X.XM 8 s t r.i.qXL x vXfXy HXoX$ cXKXn ..S.5.",
"Z 2 5 j 3.-.k.MXN.yXzX4.>XzX| XXNXL.@..Xk c SX0X, =.3.h e <.e.1.P N ` 0.*.rXNXM.y v A n 4.g g =.B yXOXoXhX7.I uXp.OXNXE.^ i.3.B ",
"t  XP.9 f N.-.< sX;X<.3XBXq.^ ;XoX/ Y.D.I mXC.x 9.n.M * i.].& F HXnX5.; 7XmX7.8 G p g ).H.O * 6.=.n ;X@Xb kXJX5.qXNXs.) 9.MXFXpX",
"D.' *.t c a.0.] $X1.N.iXi.K.~ &X[.^ _ @XkX4.&.S.q.m M S.S.f.i  XB.q f.K.C g.n t F 9 W.6.x V * m.D.u.{.5.*.;X .0.E.R.H.&.0.E.4.C ",
":.y H K * r.zX/.^ n D.e.` O.~ /.i.z } `.B.| $.w._.:.M q.k & yXQ.2 <.s .XC M 3.i V s c 4 1.H + ).;Xd.$ ! 1.e.0._.2.{ q.$.D.@.u.} ",
"i x M 0 s 6.`.S.-._.[ p *.+.0.+.; v.sX, % 2 h G S.e.k H * y.@X8 c |.+ s x V t 5 |.&Xy b *.e A y.=Xu.9.(.i.a $.-Xr.;.~ y.zXv ; *.",
"8 x B $.$.M w.t.B x Z.n.! K.1.Q 5XyXZ.0.p.p.S 0 N B r J #X X& & ^.H.- 8 2.P y r.4.K + l w.<.m k 9.r.m 2.}.6.N D.r.= >XVXx.4X9XU ",
"1.h C 9.y i n t 2 y.2.y k r.4 Z.BXM.- P.s.8.d 0 i g.d f kXV * aXkXN d O e.<.2 e.. - J.K 3 o.X A k 8 c a.%.r p q.2 Y mX+Xr tXpXN ",
"{.3.; x.SX,X& +  X8.Y 7X0Xn r sX`.; i H 8 O i.7.@ C.FXl.).m sXiX+ o h x 9.n + b 4.r 8.8.1 2.xXI + j @X5 q 5X@X$.n kXXXX F -.o 7.",
"[ , ,XMXcX:Xo | p.y 0XgX,X%.1.d.x t H A h i `.5.7 K +X#X&X| p.U c.Q.h B n.c o p ( 0Xs 6 ,XSXaXg 7 |.m.. !.cXC.$.$XY., t 3.D u B.",
"  4XKXoX& 0 2.e.p $Xi.: S n $XC 8 V 2 t y.* 3.r.s - / 0.=XO.O p.aX0X6.5.- c P g C.pX& >XVXqX% s 5.2.: W.@X@ c *.H.P 9 h.3.9 N.v ",
"c.DXs.; r 0.e.* .XY.; 3XgXs * b d 2 C i L g.h q.O.&.$.! /.v 0.Y.X * H.<.N Q.6.T LXy U SX XW 9 e.D.o i.}.t Y mXI + d N *.m 0 , c ",
"CXH _ ' m :.g [ '.> L.qXj w 9 f.* - j.* @ HXI O 0.h.k ' F.B q.` 8 V o.& gXiXO U vXU NXI , D.d n + M..X; 7.zXK 0 8 5.<.O g.O R 6X",
"q.y 2.1.0 q 2 J.s n J.~ 8 0 d b U N %.p.:XfXY P h u y P 2.3 G = 0 [ +.> E.H.a P *XvXi.& v | * 0 t uXR r X.D.O s k v I l.0XR HX2X",
"y v *.c t l *.m s < c x B C f.h xX6X- hXHXo g.lXx.o M =.M x p i x &.+.s Q.L.k c -X#XC k b i i B 3.C B x x B %.XXL @ 7XUX+ IXc.O ",
"q.G.V C y.0.r.S.i.3.%.6.0.;.z mXC.o 5XFXk.*.K.5.C y.r.r./.s.n qXtXc ( , cXwX% 8.sXH q.].4.N m.u.o.u.J.p.n $.C bXJ 5XxXt 5 KXJ ~ ",
"+.1.` F.J.D.$X[ 0.mXV.6.kX< 1 mXg.>XJXl.- J.` ^ J.}.H.e.F.5 rXeXZ.mXb & pXM.x.mXo.} K.n g.=X`.`.{.5 V.LXdXC PXT k vX5Xh KXL 3.[.",
"O.%.| H.N 7.{. .4 P.DX5XV.SXcX%.8XJX!.3 o.P.2. .[ C 2.[.S.0XlX5.v kXDXF Q uXBXP.! 9.2 d.`.n p 2.}.^.3.1.aXxXb.fXwX%.4XKX3.&.sXJ.",
"d v 0.'.^.2.V.nX6.$ NXdXx JX+Xw.LXkX! ^ ~ - 0.| XXwXi.].5.vX#X< b 4.vX[ $ yXvX$ < @XGX,X% b S.y.=.HXM.b JXMX6 JXqXg.vXzX^ H.8.- ",
"e.t.&.e./.} B ,XyXyXj.,XbXL.! bXyX&.q.&XfXfXb.! B.&Xu.%.v *Xz.%.0.m J.} Q.zXA.r - HX7XN 9.r.r.r.z k.0XMXeXn xX,XI.CXiX/ J.mXfXSX",
"}.G.$.x b r.r.3 BXcX6.wXsXG.~ zXoX! 0.W.rX8Xy.( B n 0.B d.*XC 4.XXC X.$.#X|.1 M 0X3Xc  .T.b u u.u.$ cXlX! wXvX[ A.;X@X^ q.3XrXrX",
"u.x x e.%.C L._.@Xz @XoX! _.*.].S.~ ] ) ~ 3 1.q.( B [ r.sXi.<.'.B.v F.t u.A.l E.lX9 S.F.M B %.5.$Xa.Z.k.<.kX9.X._ S..X] r.^ ! ! ",
"n h x q.r.: M.|.v =.G.3.3.+.w./.6.% 0.`.a.u.M h F.N.y u.*.a N.F.z c r.- j.( &.#.{ r :.C i <.y.v ;X+X,.&.q.=.=.`.q.X.5.F `.H.@./.",
"* <.w.p u 3.{.D.G /.6.Z 1.Y.i.].3 G XX[ t 4.v 9 1.b.l x m x - k v d l y w.-.h 5.%.: & e.0.r Z L.{.h.5.|.i.D B &XL.S.! m =Xv Z :.",
"x.6.B M h N e.9.w.y 6.w.&.H.B t.c 5XnX).e.h.H H y k f.d.s.y.<.5.a.j.F h n x f I Z 9.K.>.p L V :.h.h.n t 1.N.D F.1.=.*.8.zXP.G.V ",
"*.d + d.L.M M h p =.9.*.k 0.9.3 xXlXM.%.9.n X * N Z 5.{._.sXOXb.! 1.mXl.X 5XcXy z.N.%.o >XhXd M G t M =.*.m y t.A.k !.HXc n.N.d ",
"p X rXyXv B p @ t 5.= ,XGXV , wXzX8.= k p g rX6X0 a 0.=X} e.KXdX1 L BXI >XLXC.s KXp.# >XHXj.i H h . <.1.I GXnX5.r C.lXI a H r p.",
"M fXfXK u i d OX&Xt ~ 3X:X4 ] g.L 2 M i 8 s +XL.8 i Z.s.] x wXW.z.UXI % IX5Xy PXV h 6XaXb.= l d O #XW.o c OX>X:.w.M.T r H S s 6.",
"2 IX7X% y O c P.8.7X3X<.y C }.k o c M I tXf - U.m O F b nXV.$ iXxXx.4XeXm.z.wXnX,X+ HXQ.* AXV 9 H p.K W.a.O C l }.2.8 x V : &Xk ",
"dXjXp c.uXn =.r u ;XK 3 {.g 8.V 0 3.B J wXx.x ~ N.c.y B rXtX@.iX8Xx.vX&X%.gXNX9.HXfXj.,X8X4Xy ,.w.o 4.*XI 4.|.* x j.d y :.y z.c.",
"qXv k.bX0X*.z 9 #X9.x H.q.0 7 5.m 2 s.C o eX- j cXdXb -.1 aX;X! c.KXG./ cXLXB.u.vXyX:X7XfXx.j.*.d g._.s > |.p.x . L e.t 6.& 8 OX",
"l.P mXQ.% d s b.iXM B.%Xk w w b.L 8 M.iXd I R SX4XX *.n.[ +Xj.N.*Xp.[ ( sX#X^ G.aXV FXB.4 mXdXN * &Xs.O 4 _.u h.g 1.e.9 5.g.S - ",
"FXnXj.C b.*.6.E.B  .F.%.i s x | 1.o l.*X3.f KX>XO *.e.H.`.n k.%XJ.1.%Xw. X|.;.1.^.FX.X{ 5., 5.h.*.0.D.r.5.5.t 2.V p.<.9 z.nX: K ",
"&.U.*.5XaX%.B c * y.u.p d u.y 6.>.. !.+X` vXZ._ ] H f.(.u.6.D.0., w.(.2.s.D.;.r.[.w.Q _.B.*.aXf.r y.f <.D.O F | 0.*.t T BX*.4.VX",
"] ~ aXfXm O g *.1.h x M v 9.t 3.%.9 W.OXB.+Xy S.q.q I L.9.e.L.0.C &.F.).=XB.*.J.4 a h 5._.-X4.t d x s x <.N C 5.' ^ & Y BXm KX~.",
"b.3.M.N.-.v P %.~ n n <.0.` * Q.XX, z.VXbXx r V v t S h.r.4.t b.I.=.F.0.I.1.& _.xXrXC.3.j.e.=.-.1.e.[ 4 N  X0.1.L S.t.N vXHX6Xy ",
"3.f.h V j.=.| F.H.<.e.j.n J.1.mX,Xg.GXcXl.5.N.2.3.6.n C C i f.e.v , | 3.b 1.6XhXwX+XN.f 9 u V L.D.O.=XcX0X` 0.9.aXqX< C VX9X<.r.",
"5.i 0 h r C.mX' 0.hX,XV.dX%.< vXH 2XVXC b T.s.S.Y.r.1.N 9 P ).V.:X<X=.~ 5.DXJX,Xk a i M N 0 d B.*X2.P DXmXh pXb.#Xw.k.PXtX*.T.^.",
"M x d + ; j.SX5XH C.dXrXjX7X0Xb.3XnXN.3 T.o.f.r.F.1.f.p m =Xy k.LXcX*.= c.cXe.r J M 8 i.).i N e.s.gXJ 4 sXuXHXuX) m.VXvX! +.s.<.",
"o %X_.i J %.f.mXa.M.JXj.y JXsX2.VXcX..X.~ * bXpX! 0.H M H.M B.XXn 0 z U.B h C - G & @Xp.x m y 1.! wX5XuXsXz.mX*X/ yXBXS.] u.3 1.",
"W.e.1.i d w.B n iXNXj.U xXB.1.mXtX0.| &XfXfX4XH &.e.C m N <.|.5.M qXx 3.m V :.e A : 2.h.*.3.u %.=.5 &XkX>X8XhX1.Q.zX`.9.0.yXcXL.",
".XN 3.B - d.H.9.lXN.1.uXkXr.3 gXI.^ } L.wX5Xn ^ 9.B 5.1.L 2.i.n I [.0 7 s C g j XX=Xd M e.p - H.F.5.H.[ 6.BXs.^ &X|.] *.H.iXOXe.",
"i m 4.f.A 8.|.K.u.$.H.S.^ XX5 XX.X! } o.( %.0.G.a.*.*.p.d.9 e.0.h * t H a . f u.E.p.i H *.9 c s./.a.3.] o.D.| Y.0.O.9.$.|.<.k 1.",
"q V m d h f.`.u.$.a.{ -.%.D.' ].%.,  Xd.1.e.w.>.N.e.x a.4.x ' n q s <.5.>Xk.} G.9 9 - H 3.P h 6.0.T.*.9.F.B r.Y.=.b q.`.E.r G w.",
"c 4.C v n H b.p.n a.].h.B S.u.q.g.#X$XV h 3.M h L 3.B 9.u.`.n F 5.%.q.d xXkXW $.3 h.2.t <.i.t e.D.+.&.w.G.z *.].b.a ).;X3.f.6.6.",
"_.f N A.b u G a M 6.O.b x a.>.=.vXzXG..X{.@Xh r s f.h.r i.=XB.B.%X1Xb O aXqX1 -.t.O 4 C 3.p.y B =.h.5.G p $.w.o.l 6.=Xr.B $X&X6.",
"6.<.0.k.,XoXd M XXy.K >Xp.=.k aX=XC l 5.x h g.P t C.dXV.u.2.aXoXf.bXQ.B ` iX3X- < J OX X= j.LXj.$.n.w.n 7.x 0.*.n `.P.z *.5.A B ",
"M ^ [ iXBXx.& %XW.t B.vXwXn v XXy.& y N i X XX2.. c iXsX`.[ D.a.! ~ +XJ.$ jXhX= f.HXBXV l.lXwXY p ].b C =X*.H -.{.`.n =.9.N o B.",
"X qX&X).E + <.H.r 6.[.5 e V .X%.0 I C t e.: N.9.9 <.i.c =XD.~ %.r.] ' S.;.qXZ.C JXzX; Y LXpX% s m 0.~ n a.i.p %.].5.d w.*.0 d.<.",
"R nX|.5 O a. Xr d.*Xc k.tXs n m i n C i e.& p P.w.x 1.V &Xe.3 9.9.%._.v @X[.< v.vXb : DXeX= i *.XXr i.b., ).M %.5.M C n.B t e.m ",
"JXk.| %.D e.N N (.<.M L.y.i O =.y m 3.+ + U g V r.C x y./.m 1.}.` N +.* y.} n.*XD.a mXC.1 &.d e.N N 2.M 3 H.y C u v =.M n * g >X",
".Xu } [ h t g vXU o H.s.@ + * g.d # 3X!.j IXT @ n H y %.D.B =.q.m p D.- e.A.;.K.| a.&Xd k S.M s + nXx.t r., t x h 7.b j GX* GXfX",
"- D w.C q t 3.g.q B >.*.n *.m & rX8X> 8XGXT c.bXg.8 M 1.1.b b B b *.1.*.x r.^ b kXlX<.r C n t S L 6.3.B 5.e.m dXg.# c.FXY GXfX* ",
"6.J.B p 3.5.r.w.y.3 B m ^ I.b 4XfXR K UXgXo e.I.f.A 5.u.a.a.~ 1.n.%.^ ` rXeXa P lXj.C ).P.B C 2.a.a.S.%.b F.s VXg.T MXV.8 IXY = ",
"].1.6.(.).M.XXD.N.xXm.l.xXm X LXk.e LXxXg 2.].y.p.J./._.{ a.nXN.w.zXm., BX,XM PX`.%.H.s.g.N._.-XXX[ .XBX3X3 SXv.y IXxXX DXc.M  X",
"/ a.d.y.3.6._.^ %.I.5X5XtX2X5X,Xc.cXyXN ' }.r.r.Y.9.p.$X3 B 0XrXoXpXtX6.e.6XxXaX$.( X.] &.S.D.m.;X1.C 0XwX8XrX2XI.r.c.fX7Xx &X%X",
"tXB.1.0.[ ` m.uX%.! LXwX% LXnX-.PXVX~ $ { ! *.s.a.2.*.p.pXB %.VXxX; ;Xs.$ zXJXW 1 I.3.3 X.K.%.~ s.MXh.1 HXbX  JXeX= SXLX, 9.@X*.",
"fXL w.J.F.q.:.SXQ.sXyX>X4XpX` iXmXW.S.G.g.Y 6.^.s._.=.*.bX,XqXxX7X>X| { L.zXoX! M.VX6Xi &.r.%.w.-.fX0XwXgX6.l.pXm.fXBXH.D.#Xl.T ",
"= G.r.-.%.w.-.b DXCX%.4XBX9.^ lXI.W D.cXHXFXe.Q 1.1.r.&.m HXzXv C.KX1./ lXuXQ e.;X#XvX,Xk %.*.r.5.1 bXBX$ g.JX;.+XCXE.W K.bXFXFX",
"P.q.&.r.*.$.S.e.cXj.L.+X ..X~ XX{.} &.3.3.x 1.K.%.a Z.P.0.yXv.r.[.r.P.x  X%X&.) @.u S.] >.=.p B.H.0.pXI.=.vX{ 9.{ -X$X( q.1./ %.",
"O.1.l a.0.v `.=X' = `.U.! '.' _.s.$.A.].u.5.M 0.J.v m .X$Xv C J.A.$.F.x I.K.z ^ 0.u } &.u =.h.x sX+X! z e.+X^ /.1.A.K.^ K./.S.} ",
"-.w.h 1.e.4.|.H.e.^.y.l 5.O.{ F.3.3 G.y.' r.x h a.5.n &XD.r.J.q.z :.-X^._./ Y hXcXdXm.3.C k 5.s.|.e.1.(.).z $.(.^.o.;.*.).4 c <."
};
