/* XPM */
static char *a6ebedea71f5406d9cba4f5968b501693loR8p153xHln5fX[] = {
/* columns rows colors chars-per-pixel */
"64 64 256 2 ",
"   c #020103",
".  c #0A0201",
"X  c #04030A",
"o  c #06090B",
"O  c #170506",
"+  c #03170A",
"@  c #080912",
"#  c #160B17",
"$  c #071815",
"%  c #16151A",
"&  c #1E1109",
"*  c #2D1613",
"=  c #0B2616",
"-  c #152919",
";  c #0D2F0F",
":  c #283018",
">  c #1D1B23",
",  c #191925",
"<  c #00172F",
"1  c #251C27",
"2  c #321E2D",
"3  c #062727",
"4  c #1C2726",
"5  c #04293A",
"6  c #073738",
"7  c #163639",
"8  c #10342C",
"9  c #25222B",
"0  c #282727",
"q  c #37262A",
"w  c #253726",
"e  c #2D2A35",
"r  c #2B2636",
"t  c #342D3B",
"y  c #352B36",
"u  c #293638",
"i  c #35323C",
"p  c #373539",
"a  c #363628",
"s  c #4B332F",
"d  c #582822",
"f  c #114B14",
"g  c #2C4817",
"h  c #106E17",
"j  c #0B4338",
"k  c #164737",
"l  c #1A5739",
"z  c #0F4F2B",
"x  c #27593A",
"c  c #2D4F2E",
"v  c #156E34",
"b  c #276639",
"n  c #376939",
"m  c #2A7539",
"M  c #357838",
"N  c #2F6F29",
"B  c #2E6815",
"V  c #4B4B37",
"C  c #704634",
"Z  c #487437",
"A  c #41781D",
"S  c #093647",
"D  c #10334B",
"F  c #362C44",
"G  c #3B3443",
"H  c #3C3B44",
"J  c #393646",
"K  c #28394A",
"L  c #0D1549",
"P  c #443D4A",
"I  c #453947",
"U  c #493D50",
"Y  c #0B4847",
"T  c #184848",
"R  c #195747",
"E  c #164956",
"W  c #195955",
"Q  c #0C5153",
"!  c #234A46",
"~  c #265849",
"^  c #365948",
"/  c #264955",
"(  c #265855",
")  c #375052",
"_  c #1A6747",
"`  c #196F51",
"'  c #286849",
"]  c #356849",
"[  c #2A7747",
"{  c #367848",
"}  c #286755",
"|  c #356A55",
" . c #2A7557",
".. c #387956",
"X. c #164F63",
"o. c #2C5766",
"O. c #1A6B62",
"+. c #377B64",
"@. c #2F6D65",
"#. c #47434B",
"$. c #4A4655",
"%. c #544A57",
"&. c #55535C",
"*. c #4D554C",
"=. c #6D544B",
"-. c #467A55",
";. c #4B704C",
":. c #736651",
">. c #50736D",
",. c #6E6C6E",
"<. c #555164",
"1. c #934E3C",
"2. c #916151",
"3. c #95736C",
"4. c #AB766C",
"5. c #92584F",
"6. c #D37756",
"7. c #398939",
"8. c #389539",
"9. c #2C8B32",
"0. c #2E9D28",
"q. c #48873A",
"w. c #489737",
"e. c #539237",
"r. c #4AA939",
"t. c #58A93C",
"y. c #5AB739",
"u. c #55AE37",
"i. c #65B938",
"p. c #6EB23B",
"a. c #58AB2C",
"s. c #74CE38",
"d. c #55C633",
"f. c #298649",
"g. c #388848",
"h. c #399448",
"j. c #398656",
"k. c #3A9655",
"l. c #2A8B54",
"z. c #3B8863",
"x. c #339064",
"c. c #329E48",
"v. c #458947",
"b. c #558649",
"n. c #479747",
"m. c #559849",
"M. c #468757",
"N. c #489856",
"B. c #569856",
"V. c #568958",
"C. c #679553",
"Z. c #49A748",
"A. c #56A847",
"S. c #59B648",
"D. c #49A657",
"F. c #58A757",
"G. c #5AB556",
"H. c #4BB257",
"J. c #67B848",
"K. c #68A85A",
"L. c #68B756",
"P. c #76B957",
"I. c #6FAF4B",
"U. c #488A65",
"Y. c #578A67",
"T. c #5A9665",
"R. c #519170",
"E. c #659668",
"W. c #699978",
"Q. c #6E9070",
"!. c #59A364",
"~. c #54AD65",
"^. c #69A869",
"/. c #74B06E",
"(. c #5DC450",
"). c #69C849",
"_. c #77C747",
"`. c #78D447",
"'. c #78C757",
"]. c #7BD556",
"[. c #68C854",
"{. c #76CC69",
"}. c #64CA69",
"|. c #85D937",
" X c #93E73B",
".X c #86B853",
"XX c #B48970",
"oX c #8CB076",
"OX c #899375",
"+X c #CC9474",
"@X c #E29369",
"#X c #87D847",
"$X c #86C854",
"%X c #89D657",
"&X c #8ED351",
"*X c #8FE851",
"=X c #ADF255",
"-X c #87C767",
";X c #88D767",
":X c #92D072",
">X c #A6D27C",
",X c #92E869",
"<X c #ABEE6E",
"1X c #A3DA48",
"2X c #CDFB72",
"3X c #C0D576",
"4X c #6A7A84",
"5X c #887C8A",
"6X c #719286",
"7X c #77AA88",
"8X c #5E8886",
"9X c #8A9192",
"0X c #B38D8A",
"qX c #8EB28F",
"wX c #A8B194",
"eX c #93AEA8",
"rX c #A6B3AD",
"tX c #CE9989",
"yX c #CFA895",
"uX c #F0B490",
"iX c #E0B6A6",
"pX c #96CC8C",
"aX c #ACD692",
"sX c #B4EB91",
"dX c #B2D1AC",
"fX c #B8E8A9",
"gX c #9BD5A5",
"hX c #F8C49A",
"jX c #FDC990",
"kX c #C9F492",
"lX c #CAD5AF",
"zX c #F9CCA5",
"xX c #FCD4A9",
"cX c #FBD9B6",
"vX c #EBD1B2",
"bX c #C5E9A9",
"nX c #D9F9A9",
"mX c #C6E9B9",
"MX c #D7F9B6",
"NX c #CDF3B1",
"BX c #E7FEBA",
"VX c #F1F7B0",
"CX c #D8EB97",
"ZX c #C9D5CD",
"AX c #D9F9C7",
"SX c #D3ECCE",
"DX c #FDE8C5",
"FX c #E7FCC6",
"GX c #F7FDCA",
"HX c #FBF8D7",
"JX c #EBF6D5",
"KX c #FDFDFE",
"LX c #F9F8F7",
"PX c #F5F8E9",
"IX c #E8E0D3",
"UX c #B3F0C4",
/* pixels */
"v.k.O.B.m...K._._.7XB.M.9X7Xz SXdX-.pXbXqXM.G.N.M.{ ;.:XB.g.].G.W j._.J.|.G.l.s.B.{ { m...@.E...A._.&XpXE.M.W.oXl dXrX! VXqX} B.",
"~ R } ( S 6XNX{ m sXqXqXbXn >.gXY.wXsXm g.<X!.k.#Xm.R M.B.{ l } x.z.].A.`...' =X^.| ' R } / ( ).=Xm [ bXdX6XAXQ.[ {.qX6XfXM #X|.",
"L./ D ( ~ j.:XsXj.b.BXqX] GXbXh.NXkX7.n.i.[ E.P._.n.' z.| ~ R N.!.[ J.v.7.M.oXsX:X:X;X} 5 ! ( F.I.pX-.' nXdXR FX:Xh bXJX{ a.).N.",
"O.n n ) M.l.R.NX^.aXkXV.8XkXJ.:XnX-Xs.$Xb ] mXpX_ j.v.( 6 q.B.M.;.' q.B...qXMXE.R ] E M.b.E ( v. .dX:X:XfXM.>.aXL.>XnX.Xh.I.M. .",
"T -X{.S ^ L.l.v sX2Xv.qXFXS.8.2X-XN |.[.>.SXE.' h.h.l T m.p.; ~ wXqXb f Y.aXN D @.T / P.'.j k T.k.{ 2X-X[ kXGXN.pXVXP.0.Z.bXAXfX",
"_.q.j.T ] L.A.r.<Xn./.sXP.).g.<X,X8.w.-X>X;.m q.7.z z N N ! 5 c c , - c ; k c 7 o.D .XB.' ..j /._.J.1XD.j.2Xp.A.$X1X'.c.A..XV...",
"z.R -.;.k G.sX%X8.{ _.G.w.s.g.%XJ.v w..Xb.B f f B 8 $ g = o a a ; 4 i V c w + 3 k 7 ^ ] M.+.T $X2XP.h 9.n.F.A.%Xm.y.y.f._.s.J.r.",
"E _ } K ! B.%X).l.%Xt.W j.s.A.s.l Q.pXz $ w 4 4 w w J t 2 I :.9 % a q q I &.e 4 g B 3 l m D o.K.<XJ.Z.#XP.Q f.1XG.c.7.I.kX' z k.",
"L '  .f.f.} D.H. .] /.~.9.`.n.f.eXaXK.n : q 1 s * q d s O C 1.* * . & % % 2 t U V p $ k M g.O.' Z.~.' m.*XB.| `.G.z 6XVXW.qXwX>.",
"n.( ..Z.R E { Q b C.m.W _ G.M /.nXK.z -.g & O O * q * d =.* & 3.=.O O 1 q q 1 2 0 J V $ n w.8 b _ S | L.g.Y W S.b >.MXpXY gXsX;.",
"*XM.z W.ZX7Xj 7 -XC.Y.eXpX{ Y sX&Xl 6 8 $ 0 & . & s * d 4.*   s C 0Xs & 1 q q q 1 r p 4 ; q.dX>.7 *.:Xn D wX;Xf.{ kX:X3 @.l.5 b.",
"t.v 7XnXbX4X5 i.K.R pXfX7Xg.n.I.] Y ( 8 % 1 q wXs . . * 5.* . . d HX:.. q q y q y q r $ ;.dXfX/ L =X^.< OXbX/.f.,X|.l T M.O.E /.",
"3 qXJX:Xj D m.F.W ,XJ.c o.{ ,X..S ..x - w % s GXXXV =.V O O * wXlXHX=.O 1 2 q I s q 1 w oXoXz k N.m.x .X:X3 ] j.'.;.S N.M.S ~.] ",
"W.SXP.z Y A.F.k ;X|.c qXbX/ k [ / ' x 3 0 % * vXDXDXPX0X. * 1.HXHXHX:.. > 2 1 q q y 0 *.b.B 8 !._.5 J.*XT ,.MX>.7 ~ | j.} S v ] ",
"VX+.0.e.[ z./ t.&Xx {.pX| K D U.k l -.3 $ 1 q zXcXcXcXvXyXvXcXDXDXHX=.. O # 1 2 * y V + f t.~ j.7 /.;Xz b.kX-.K D N.v.8 R.6 ,.qX",
"S.R m.m.D D b ].! { ].7.S K ~ [ Y.| ] N w # * xXcXcXDXDXDXDXHXcXxXcXyX0X:.* % > * F a + x b.R 7 Y aX&.Y d._.6 ! ` [ >.Y.pX&.FX9X",
"R [ j.] T ` k.] T v { '  .| U.~ dX7Xk ,.V :.+XhXzXxXcXDXcXcXcXXX2.C uXGXtXq X , # 0 4 = k k Q  .M. .` _ '  .g.%X-.3 eXJX7 PXW.6 ",
"S.}.....J.A.L.).P.n.h.B.A.c.` AXW.3 Q.Q.> yXjXs s :.=.3.HX:.O . . O XXcX+X=.2 & & 9 a g ~ ] A.L.s.J.].K.[ f...mX@.eXmXT n JXo.7.",
"s.N.w.`.]._.,Xt.A.AX6XB.kXm v MXE.Q.dXc o tX@X- X X   V PX:.1   $.ZXvXhX+X+X0XC # 0 p + Z -X;X;X,XN W.HXgX .JX>._ nXwX( JX-.M.%X",
"s.g.i.'.| M.1Xp.m {.SXwX/.ZXbXg.rXGXC.; - +XzXLX,.    =.HXHXIX. >.KXIXhX+XXXtX2.* 1 r w q.x ~ m.*X$XM.n.kXfX!.dXpXg.qXJXM.h.sX].",
"~ [ A.&X'.m.^.mXB.h nXgX' GXpXD.JXbXB f = XXcXKX,.    V HXDXlX. &.LXvXhX+X4.tXyX=., H u 5 x L.L.k.GX^.[ GXnXf HXpXT.nXkX8.'.C.R ",
"F.Z.h.F.#Xr. .7XfXfXT.7XmX'.9.NXfXM q.;.e XXxXPX9X*.,.0XcXcXDXrXlXDXcXxXXX4.0XyX,.O 0 - c m.J.S.[ R.pXNXpXM lX7X}.VXsX0.%XMXdXZX",
"*X[.f.' [ H.G.m VXbXB.pXsX(.f.kX{.9.m.n w XXjXvXcXHXHXxXuXxXcXHXcXxXzXhXXX4.0XtXXX3.a ; e.b l J.J.h CXkX9.qXnXt.S.2X:X8.S.qXgXpX",
"J.' ' F.g...{.%X:X_ :X:X9.;Xg.*X[.N M f = XXuXuXzXxXzX+X6.1.5.vXxXxXzXhX4.2.0X4.0XyX:.+ 7 R [ U.,XL./.R.M.NXZ.d.0.).;Xr.G.8.9.9.",
"{ ( ' S.G.x /.=Xm k.[.v.M.s.A._.v.k Z N - XXuXuXuXhXuXuXyXyXuXcXxXcXzXxXXX5.4.3.4.yX=.  + c ;.b 3X:Xv n.S.k.x.#XS.d.k.@.%X'.s.#X",
"k n.D.W E M.,X_.@.&XB.Q N.|.J.].b k Z ;   XXjXhXhXzXzXxXxXcXzXuXtXtXyXtX1.C =.2.3.0X&.% 4 + = -.I.M.!.=XJ.O. .<X{.).9. .<X' X.z.",
"W.B. .} ( | F.Z.~.W n.D.k.)...h.c ^ *.+ i yXXXC 1.C C C C d d d d d O O .   0 &.&.&.%.#.$.$.w k [ N...Y n.}.O.`.n.k.j.C.kX{.[...",
"j.~ 7 K.{.} } ( R g.A.j._ S.n.b ;.*.*.i <.5Xy     o #.,.,.@ X 9XrXeX4 X o $ K J P i H r r &.u $ l D ' N.k.' _ H.(._ oXFX] ~.G.~ ",
"W 8 dXdX[  .W 4 / N.z 6XmXj.z Q.*.V s J J F , $ X @ IXPX9X9 o rXPXKX&.  % i #.#.$.$.$.i F $.u - 7 < b.n.@.ZXNXN.Y /.CX>.Q +.Y K.",
"} dXdX;.Q E ~ :X<XE Z oX>.{ w.^ - a P J J U I 4   4 KXLX9X> o ZXLXIX&.X e I #.&.%.#.P p G <.u + 3 .XP.5 ..oX8Xz.D./.<.Y +.o.! B.",
"b PXeXj R 6 ] {.T.eXqXM.R ..&Xj   i $.F I U I r , > G 9XLXH , KXrX% , > 9 $.<.%.%.%.#.G F &.u o T C.;.P.L.j .._ =Xm.L ' ..x <X_ ",
"dXgXW W.aX{ k.Y Y 2X>.M *X/ ;.x o y $.i H U I F > %   ,.KXp % KXeX  # 9 y P $.%.%.$.H H P <.e % { < V.=X+.M.=Xc ' T.~ R z.R E.W.",
"pX[ R.mXpXj.` S >XA.b '.J.6 L b = u $.t I P I p G   X 9XKXH > KXrX% @ p 9 P $.$.$.P H t J $.u = 7 -.'./ k =XK.] < -.!.T B.j S :X",
"E.;.MXoXz ~ ! !.sX| /.<X_ D 7 M - u U y t P H e p y X $.9Xe % ,.#.# i #.9 i P %.U P H i J %.u = 8 &XJ.6 g.%XQ M./ n.F.S N.Y.o.l ",
"AXMXT...!.j.V..X| a.`.j.W T ~ A - 0 U t G J J e H #.  % y % > 9 % o #.#.1 i $.P U P H G J $.u = c e.J.S.N.U.W Z...K.v.S E.NXx >.",
"h.}.j.qXsXg. .] R A.J.Q ~ J.R n ; 4 G e i J F r i &.9 % G 9 9 t # 9 $.P 1 e P I U P H G J $.H - 5 e.^ n._.S o.i.A.j.T >.BXj.V.VX",
"r.9.sXdX| 6 / j.N.' ' } ' A.T ^ ; 4 G r e F t > r $.%.9 % i i X 9 &.$.t 1 e y p i i e e G %.u + 7 ! ! b n.| { F.q.8.j >.BX} JXoX",
"!.M././.l.[ -.h.g.{ M g.F.w.j ;.c u F 1 9 e e > r G &.#.  y P X P &.I i % % 9 9 9 > > > t #.w - N V.e.M ' -XA.8.-.).H.| nXFXqXR ",
"M.U.( ..T.k.i.`.'.v.K.T.{ `.v.OXc % @     X     1 G H $.e 9 > i $.#.H i @       X   X   @ > $ w Z p.<XNXqXv.A.S.sXpXv { VXwXv.G.",
"N.E D ( Y /.MXe.A.bXW.7XgXf.v OXw 4 P I p H #.*.t t i P #.% % P P H i G ,.6X4X9X9X9X9X,.<.&.0 w I.b.| AXMX( fXB.>XD.R.IXaXj. X$X",
"} ] ~ 6 z !.SXeX ./.dXgXrXeXoXZ 4 *.LXKXLXLXKXKX,.# t G H @   H s p r J LXLXLXKXKXKXKXZXrXZX&.= Z aX@.M.kX>XFXaX0./.VXCX9.s.P.v.",
"5 ,X%XE @.g.R.MXL./.FXE.! GX<XM ^ :.iXuXhXiXuXzX%.# e y y # @ i t t 9 * iXhXuX@XuXuXuX2.5.0X#.+ f qXqXaXkXE.MXkX9.aXBX).r.J.m n.",
".XF.n.E ~ D.` { aXBXE.>.dX{.7.oXV C @X6.6.6.6.@Xq X % % % .   % % $ X * XX@X6.@X@X6.@X1.C 3.V ; ' b >XbX6XrXsXm.oXkX%XZ.D.aXbX{.",
";X| M. .l I.'.Z.kX/.N.aXkXA.M qX;.w c : 0 * * q y % 9 1 % # @ % 1 e G p 0 . O ,.OXV * % e 0 % n t.g.).A.T.nXJ.h.<X=Xr.j.'.aX:XF.",
"E | V.U.o.C.=X`.L.f.[.P.r.;XN P.I.f f B f ; + = I t G G e 0 1 y I $.$.) , , 7 / u $   5 8 + 7 V.p.A.h.r.)._.i.].A.s.Z.g.=Xv.` n.",
"D ..} ~ } U.%XJ.f.L.y. .M s.r.&Xv h m.Z c x - - p e G G y 9 1 i I P I U e i H H X $ - ! ] n x ;.A.|.j.Z.*X..L.|.k.f.S.*X.XY  .F.",
"] V. .[ { +.!.K.[ L.*XR.j.`.J.r.R.:X:XZ x ^ 4 > I e J J G 9 9 G P %.I s y y #.%.= u n k M C.k B.'.`.h.F.'.' j.#X!.Q $X2XM.U.B.B.",
"%X^ | (.[ X.+.Q ' T.p.{ _ [.l.x.nXkX'.].%XC.- $ I e J J G 9 1 G U U P G F t ) ) ; $ b  .g.I.R [ k.N.N. .W g.D.(.` N.=XL. .,X<XB.",
"B.n.A.R.7X-XW } ,XI.] 6XK.k._ sX<X[ ` U.( T k : e 9 p i y 1 > i I P G H t e H H + 7 OXoXz W.HX^.g.~.D.{ b.' A.l.] %X{.` j.N.o. .",
"} 8.A.sXBXW.j <XoXT /.nXpX{ [ ;XC.j W | x 3 Z : e 9 i t e 1 , e G I t F e r G J - oXdX{ B.kXpX-.W #X[ ..<Xj.+.l.*X%X] k.Z.| 5 /.",
"8 pX<X$XZ 7 v.'.Y B.*XM D ..;Xg.S ..+.T m.k c w e 1 y e e 1 > e t G t F r r i G V C.z Q.GXdXz Y [ A.7...L.J.W g.*XN.~ H.j.K K.v.",
",.NX=XN 6 L.{.Y K.=X] W.aX! {  .E ....E B.z 8 w t 9 e e r 1 , 1 e t t t 9 9 e H V k k bXaXl Y z.;XY I.!.b $X} v.N. ...~. .T K. .",
"GXY.i.h.O.F.| | #Xv.} {.K.E 6 k.~ } M.k 7 ^ 3 > e 9 e r 9 > > 9 e t t t 9 9 e H : 3 aXQ.v 7.R F.| | m.} m '.R ..Q [ k.} { k / 7X",
";XQ u.t.( T / NX>.5 '.P.3 7 l R.^ 3 qXqX) dXJ . , # % % > % % 1 1 1 1 1 1 1 > t w n -X~ ` [.@.E 7 MXW.Q S.b Q ' o.b.[ | SXk SXdX",
"l O.D...D T M.Y.D  .j.j.{ j. .j wXrXx rXlX*.c g @   X X X   X X X X o o @ # @ 4 c .XN R j.{ k X.-.B.M. .N.F.| gXY.$ W.AX>.SXdXk ",
"B.]. .W M.N.G.D.C.m  .} 8.}.[ qXmX>.>.AXaX5 g k #       X           X o @ # @ 0 V x } -X'.....B.L.L.).g.[ `.! BXY.<.NXW.S PX>.z ",
"#Xn.B.&X$X/.:X_.L.lX^.Q.lX' 6 HXR.K GXbXk q.q.g $   X   X . X o X # X o @ X   y V x S.L.R.^.].1X,Xt.;XBXqXm ZXE.R PXlX8 AXW.} -X",
"9.L.I.I.M.B.%X8.g.{.rXqXgX9XwX7XW.mXfX| e.s.M c : = ; : o + : 0 w w 0 % + $ : c f M y.r.h.).'.K.2Xn...pXpXrXgX9X}.H.W.dXeXb <X<X",
"aX/.n.A.t.w.^.aXh.9.HXpXz HXNXl.IXVX9.h u.N { Z Z c z g ;.8 g OX=.+ Z c ; Z Q.f 8 /.M.[ ).].7.8.P.MXU.v FXmX8 GXpXz SXHXv Z.:Xj.",
"dX-.D.].`.S.z.ZXoXsXaX6X9XsXw.sXMX.X(.}.E.>.B.p.B.t.m n 7XY.K.oX,.;.q.Z b.oXE.N V.nXqXW n.G.l.H.l.dXpXpXfXC.Q.sX^.dXBX'._.>XQ.>.",
"z [.G.l.g.D.c.[ SXVX{ 9XBXZ.8.nX/.0.).bXFXMXF.v v.N.n.g.} mXaX] Q.fXn.9.sXoXv D.<X>XkX/._ [ z.S.N.v mXBXh Y.GXc.:XVX.X0.).mXAXAX",
"].S.h.G.j.f.(.F.bXT.{.:Xt.;X7.:X%Xd.h.M.q.n g.).7.W ^.{.F.aXW.L.,XF.{.` '.<X9.r.s.E s.r.+.M.( /.'.A.sX{.k.nXy.Z.u.<X,Xc.y.w.9.g.",
"s.n.} L.A.[ ,X<Xe.v %X{.9.&Xw.%X/.f.(.`.i.D.O.F.%X..{ ;X,X{  .#X[.j.]._ {.`.' 8.t.Q y.8.X.N.U.] sX>X9.` F.,X8.#Xn.(.).8.`.#X).u.",
"l.D.( n.F.V.=X'.F.$XI.} N.s.y.`.h.[ [.I.q.H.' ( L.N.{ =X$XH.;XJ.` k.*X-X#X7.>.UXlXgXG.j. .W U.P.=XF.N.1X$X` f.#X&Xs.c.j.&Xn ] v."
};
