/* XPM */
static char *player21721857592[] = {
/* columns rows colors chars-per-pixel */
"64 64 256 2 ",
"   c #020103",
".  c #0B0102",
"X  c #03030A",
"o  c #07080B",
"O  c #150606",
"+  c #090814",
"@  c #130C16",
"#  c #081618",
"$  c #18161A",
"%  c #0A180C",
"&  c #271719",
"*  c #2F1410",
"=  c #113018",
"-  c #2E2E1C",
";  c #1C1B23",
":  c #181728",
">  c #071729",
",  c #241C27",
"<  c #2F1B29",
"1  c #062627",
"2  c #192428",
"3  c #073729",
"4  c #1A3927",
"5  c #093738",
"6  c #153938",
"7  c #0C293A",
"8  c #26232A",
"9  c #35262A",
"0  c #2B2734",
"q  c #342C3B",
"w  c #352B35",
"e  c #283736",
"r  c #34323B",
"t  c #39353B",
"y  c #2D3929",
"u  c #49231C",
"i  c #4A3231",
"p  c #693729",
"a  c #46150E",
"s  c #0F5016",
"d  c #285217",
"f  c #337216",
"g  c #05472A",
"h  c #0B4738",
"j  c #18493A",
"k  c #17573A",
"l  c #12502E",
"z  c #274327",
"x  c #254736",
"c  c #275739",
"v  c #365637",
"b  c #34502F",
"n  c #176D34",
"m  c #2A6939",
"M  c #356939",
"N  c #2A763A",
"B  c #31712E",
"V  c #106E11",
"C  c #4D4E39",
"Z  c #6A4B36",
"A  c #467033",
"S  c #617F37",
"D  c #063548",
"F  c #153845",
"G  c #0F304E",
"H  c #3C3444",
"J  c #3A3945",
"K  c #333144",
"L  c #0A0F48",
"P  c #433A49",
"I  c #473C55",
"U  c #503F52",
"Y  c #623E40",
"T  c #0A4846",
"R  c #184748",
"E  c #1A574A",
"W  c #174854",
"Q  c #195955",
"!  c #0A5254",
"~  c #234845",
"^  c #275748",
"/  c #244856",
"(  c #265856",
")  c #384F4E",
"_  c #1B6848",
"`  c #1B7745",
"'  c #1A6657",
"]  c #0F6B51",
"[  c #2A674A",
"{  c #366849",
"}  c #2A7748",
"|  c #367849",
" . c #296856",
".. c #366A55",
"X. c #287555",
"o. c #377856",
"O. c #265067",
"+. c #186B64",
"@. c #307367",
"#. c #145862",
"$. c #46444A",
"%. c #4B4755",
"&. c #54535A",
"*. c #514F51",
"=. c #6D544A",
"-. c #467956",
";. c #4C6D4E",
":. c #706F58",
">. c #505667",
",. c #4F736C",
"<. c #6E6D6D",
"1. c #675962",
"2. c #8A532F",
"3. c #855951",
"4. c #906E55",
"5. c #AF6D53",
"6. c #A8766D",
"7. c #91716B",
"8. c #CD7550",
"9. c #D67F61",
"0. c #368739",
"q. c #308F33",
"w. c #2F9B26",
"e. c #4C8E35",
"r. c #49AA3A",
"t. c #57B739",
"y. c #53AA39",
"u. c #6AB63B",
"i. c #5EAA2F",
"p. c #69C538",
"a. c #74D136",
"s. c #5CC831",
"d. c #2B8648",
"f. c #378748",
"g. c #399549",
"h. c #388656",
"j. c #399554",
"k. c #2D8A50",
"l. c #38A346",
"z. c #368B66",
"x. c #1C8458",
"c. c #478949",
"v. c #588947",
"b. c #479848",
"n. c #559848",
"m. c #458858",
"M. c #558956",
"N. c #489857",
"B. c #559958",
"V. c #669651",
"C. c #4AA648",
"Z. c #56A848",
"A. c #5AB747",
"S. c #4AA65A",
"D. c #58A857",
"F. c #59B555",
"G. c #4BB354",
"H. c #64A848",
"J. c #67B748",
"K. c #75BC48",
"L. c #67AA5A",
"P. c #68B757",
"I. c #77BA56",
"U. c #73AD52",
"Y. c #589866",
"T. c #508C6D",
"R. c #699775",
"E. c #6F916E",
"W. c #55A964",
"Q. c #77B668",
"!. c #70AC6D",
"~. c #5AC44F",
"^. c #6AC547",
"/. c #76C94A",
"(. c #78C657",
"). c #71D051",
"_. c #79C666",
"`. c #73CD6D",
"'. c #71DC5B",
"]. c #87DA3B",
"[. c #89E338",
"{. c #ABEC3A",
"}. c #87B855",
"|. c #948E74",
" X c #B48A75",
".X c #8CB075",
"XX c #C89775",
"oX c #E49B6E",
"OX c #86D649",
"+X c #85C858",
"@X c #85D657",
"#X c #95D956",
"$X c #8BCE4D",
"%X c #8BE555",
"&X c #90E74D",
"*X c #ADF154",
"=X c #86C867",
"-X c #88D768",
";X c #89C978",
":X c #95D36F",
">X c #A9D874",
",X c #95E765",
"<X c #ADF06E",
"1X c #A3DA4B",
"2X c #CBFA6F",
"3X c #6E7B85",
"4X c #749287",
"5X c #75A587",
"6X c #5E8B84",
"7X c #6FC085",
"8X c #8A9091",
"9X c #B09088",
"0X c #97B997",
"qX c #8CB28D",
"wX c #A9B694",
"eX c #94B1A8",
"rX c #A9B4B0",
"tX c #9D9DA6",
"yX c #CB998A",
"uX c #D2AC90",
"iX c #EFB492",
"pX c #DDB19C",
"aX c #98C78A",
"sX c #93CF8E",
"dX c #ACD493",
"fX c #B3EB91",
"gX c #BAD9A8",
"hX c #ADCEAD",
"jX c #BAEAAB",
"kX c #9BD997",
"lX c #F7C49B",
"zX c #F0C69D",
"xX c #CDF591",
"cX c #C9D2B3",
"vX c #FAC9A6",
"bX c #FCD5AA",
"nX c #F3D1AF",
"mX c #C6E7B7",
"MX c #D7F9B8",
"NX c #CFF0AD",
"BX c #E7FEB6",
"VX c #F0F6B1",
"CX c #D1E097",
"ZX c #C8D4CD",
"AX c #D4F2CE",
"SX c #E7FBC5",
"DX c #F9FCC9",
"FX c #E9FBD5",
"GX c #FCFAD7",
"HX c #F6E9D2",
"JX c #FAFBE8",
"KX c #FDFEFE",
"LX c #F6F8F8",
"PX c #E8EEED",
"IX c #EADCCE",
"UX c #B7C7C2",
/* pixels */
"e.h.+.n.n.| !.p./.Q.Y.-.tX0Xg FXcX-.aXCXqXf.G.S.h.| -.#Xn.| '.J.! h.$XJ.OXD.X.p.n.M ..B.|  .Y.o.L./.#X;XW.M.E.wXx ZXrX~ VX.X' Z.",
"E ^ X.' D 5XNXd.0.jXqX0XjXM ,.hXE.wXxXn o.<XY.b.&Xe.( m.n.o.c [ j.z.@Xy.].o._ *XR.o.{ _  ./ ( ).*Xn | mXUX5XAXE.} =X0X4XgX0./.].",
"_.( F ( E z.7XfXh.c.VXaX[ SXNX0.NXNX0.b.u.} R.I.K.N.[ h...( ( b.W.} H.m.N m..XfXsX-X-X .D ~ / Z.t.sX-.m xXmXk SX;XV mXSXB s.p.j.",
"+.c M ) m.j.T.NX!.gXxXM.6XxXt.:XNX;Xp.+X_ { mXsX_ N.c.( 3 f.B.f.A ^ 0.c.-.aXNXQ.l ..O.| v.F ( c.X.gXaX;XjXc.o.dXQ.aXBX}.r.K.-.+.",
"R }.`.5 ^ !.k.n <XxX-.5XSXJ.w.xX_.0.[.J.,.NXE._ g.N.E F V.K.3 k hX0Xm l 4XaXA 7 @./ ~ }._.h l B.j.f.2X#X} jXBXN.kXxX/.w.r.NXSXfX",
"K.n.j.T [ P.Z.r.>Xr.Q.fXK./.0.<X%Xl.w.#XfX-.0.y.e.E j e.e.v 0 A *.> b f d ^ [ 3 ( 6 }.B.E ..j !.I.u.#XN.g.xXu.C.+X{.(.l.r.}.T.o.",
"z.E -.-.h L.xX).q.| K.P.e.].0.@Xa.n y.$XB.e.c B e.x = f = # ;.C y C $.*.&.x y 3 v F ) m b.o.R =X2XU.n q.e.D.D.%Xn.u.J.d.a.p.t.t.",
"W Q ( W j n.#X^.z.).t.#.| a.A.a.l E.kXl 1 z 2 7 C b ) $.*.:.<.i & - i * q 1.$.= e.n.5 m | W ( L.*XI.C.#XK.] } 1XF.l.f.H.xXB l b.",
"L +.X.0.k.X.S.G.X.} Q.W.q.^.g.d.0XdXL.e.C C i i u < u u . u p * @ . O & & + , U &.t > l c.c.] _ C.W. .n.&XC.o./.F.k 4XVXR.qXqX:.",
"b.{ h.G.E R f.R m H.n.Q _ F.B !.BXV.k Y.A % . O * a * u =.* * 7.=.O . & - 9 < @ @ J :.x M H.5 m _ D ..L.f.T Q A._ T.MXaXT kXkX;.",
"%Xv.g R.mX5X5 7 =XV.,.tX;X| T fX#Xx R j # w O . * < & i 5.*   u p 9XZ O < 9 w 9 & . ;.v g e.ZX,.7 &.:XM G wX:Xd.| xX>X3 @.x.5 B.",
"n._ 5XmXjX3XG ^.L.^ sXjX5Xf.C.K.c R ( j 1 0 < wXi . . * 3.u . . C JX:.. 9 9 9 i 8 O %.= V.hXhX/ L *XL.# .XmX!.} %X].n / ,.#.W =X",
"3 4XDX=Xg 6 n.b.E ,Xu.B O.| ,Xo.D { c z z ; u DX9X- =.*.. * 9 tXnXHX=.. & < 9 i w & ) b dX.X3 j N.n.E }.;X1 { m.(.{ D j.m.6 W.[ ",
"R.AX^.l F C.F.R _.OXd qXmX/ j | E | c 3 z - * zXHXHXDX|.  u 2.HXDXHX:.% : < < 9 i ; *.:.V.f 3 W.).5 (.&XR <.MX@.F ( ..f. .R n ..",
"BXz.w.n...z./ J.#Xc =XsX .K D T.j j -.3 # w * vXbXHXbXCXuXpXvXVXbXGX=.. O & , < O @ <.4 s u.~ h.6 Q.-Xl M.xX-.F G c.b.5 T.5 <.qX",
"J.j Z.e.D G M ).R | (.0.G 6 ^ } ,...-.M y 0 * vXHXbX=.5.vXiX7.4.vXnXyX9X<.* @ & * : C 3 b e.W 6 F dX;.T s.^.6 R ` N ,.,.aX>.FX4X",
"^ _ o.{ W ' j...R N | [ X.o.T.( gX5Xj |.;.:.XXiXuX=.-  XzXiX4.0 7.pXvXVXyXu + @ & $ J = c h W | -.X.X._ _ @.f.#X-.1 eXAXD JXR.3 ",
"F.).o.f.J.Z.F.K.I.N.f.B.y.l.` MX.X1 |..Xx uXiX3.* * pXnXiXzXnX8X. p  XiXXXY < & O @ ;.A M [ D.^.p.^.).V.o.k.| mXo.tXmXE { FX>.e.",
"p.Z.b./.OXI.&Xy.Z.MXR.M.jXn n MX,.E.cXM = 9X5.o   $.KXHXlXzXJXtX% X O 4.XX9X9XY O O *.x M =X-X-X,XB 5XFXkXX.FX,._ MX0X( FXm.N.%X",
"a.f.J./. .c.1Xu.0.`.AX0X!.AXjXf.rXDXE.s c uXXX% o w PXJXzXuXJX8XX X =.pXyX6.yX3.O + %.A V.m E b.*X+XN.b.CXcXY.hXsX0.8XJXm.l.fX'.",
" .n t.$X+XB.!.jXN.V BXhX[ DX:XS.FXcXf B =  XlX- X < PXJXzXvXIXUXX o :.iXXX6.pXyX=.. <.) 3 ^ I.F.g.SX!.{ DXVXs DX:XB.BXxXq./.v.h ",
"Y.C.j.L.OXA.X.5XgXdXB.5XmXQ.0.mXfX;.e.V.A XXiXyX=.6.JXGXzXvXnXJXZ =.pXvX6.6.9XpX1.. *.= B n.H.A.` Y.aXMXsXN cXqX_.VXdXw.%XAXgXZX",
"&X^.x. .} F.F.} VXCXB.qXfX^.f.xX_.n b.e.A XXiXzXzXpXnXvXlXiXbXnXzXpXzXlXXX5.9X9X X7.C f u.[ h J.A.V mXxXq.7XNXA.P.2X-Xq.t.qXhX0X",
"u.} [ F.f.o.=X).:X] -X;Xq.-Xj.OXK.q.0.B z 9XoXiXvXvXzXyX8.5.2.nXbXvXvXlX6.5.6.6. X X:.C g E f.m.,XP.Q.T.f.NXC.s.w.(.-Xr.G.d.q.q.",
"} ^ ' F.P.[ L.*X} j.).m.h.a.C.OXc.g A e.y  XoXiXlXbXlXiXuXpXiXbXbXVXbXbX X3.6.5.6. X=.1 3 v -.B fX-Xn j.A.j.z.OXP.~.l.+.#X(.p.&X",
"j b.S.Q G N.%X(.@.$Xc.Q b.[.^.'.{ c v.d O  XoXlXbXlXlXbXbXbXvXpXoXiXuXyX3.p =.3.=.9X1.2 4 1 4 M.K.N.W.1XJ.+.k.<X_.a.q.X.<X| +.M.",
"Y.B.X.' ( ..F.C.S.^ n.S.j.^.N g.v ;.:.z 0 rX6.Z 2.Z Z p p u a u < u O .   . , %.1.*.$.J >.,.$.{ f.M.h.E N.W.' OXb.j.h.V.xX-X^.,.",
"h...6 L._. .+./ ! j.Z.h._ A.b.B E.E.:.*.1.8Xi     . *.<.<.+ X 8XrXtX, X X > K J I t t : : t ~ 6 _ F  .j.j.} ( S.~.k qXSXB S.W.E ",
"Q 3 dXgX[ X.( 2 W N.l qXmX@.l E.|.C < ; , K : # X + PXPX3X8 # rXPXLX&.  ; w %.U %.I $.r q P ) 4 ~ > M.b.@.ZXMXN.h .XxX@.Q @.W L.",
"X.rXgX..T ! ^ :X<XW B .X3X| 0.;.e C P K I I P :   2 LXLXtX: @ ZXLXPX*.  8 H %.&.%.U P J H %.$.1 > }.U.7 -..X6Xz.C.!.>.T @.( R B.",
"k FXqXg E F [ `.Y.0XqX-.k } @Xl # $.) K H U P 0 ; 2 q 8XPXP ; KXtX@ , , 0 U %.&.%.*.U K K %.J # ~ B.{ I.P.T X.[ ,XZ.L [ @.v ,Xk ",
"hXjX#.R.aXo.j.T T xX,.N %XW ;.c # %.I q J I P K , @   <.KXJ 2 KXtXX % 8 q P %.%.%.I I P I %.) 4 | > M.<X-.m.*Xx [ Y.^ Q T.^ !.E.",
"sX[ T.AXaXf.` D >XZ.N ).P.F L m 4 I P q H P P K t X X 8XKXt ; KXtX; @ J 0 $.%.%.%.P P r J $.) 4 0 ;././ j *XL.[ L | D.R N.5 D :X",
"V.;.MX.Xg [ R Y.fX .Q.<X^ F 6 B 4 H I q H P P 0 H 0 X *.8X0 $ <.) @ t $.8 r P %.%.P J r K %.) 4 5 $XJ.5 f.%X! m./ b.D.D n.M.O.k ",
"SXMXT...Y.z.B.}. .y.'.c.W ~ ^ e.x J P q q P H 0 J %.X $ r $ , ; @ o P $., H %.U %.H J J J P $.e v e.J.A.S.T.E b.-.D.c.D L.NXc ,.",
"f.'.h.aXfXo.X.m j A.J.W ^ i.^ { 4 0 K w 0 P K 8 t &.; $ J 8 8 r @ , &.P 8 q $.i P P P J K P $.4 7 e.^ g.).G O.p.y.m.j ,.BXo.T.DX",
"l.q.fXgX[ 6 W h.b.Q [ [ N Z./ M z 0 i 0 8 H K : 0 %.&.8 @ w r   , &.%.q , 0 q t J q w 0 q %.t 1 4 ^ ^ [ b.{ | Z.e.d.T ,.BX| FX8X",
"W.m.!.Q.d.} -.b.c.| f.0.D.q.h ;.;.b q ; , w 0 : , q &.U X K ) X P &.P r : $ 8 8 8 $ ; 2 0 P x z B c.e.B [ ;Xn.g.-.^.F...CXFXqXE ",
"h.T.Q h.W.f.J./.(.j.D.Y.A ).e.qXb 8 X X   X     , H P %.0 8 ; t %.$.J t + .         X X + : 8 b e.i.,XmXaXv.Z.G.NX,X` o.VX0Xc.~.",
"m.W F ( h !.NXb.C.jX5XR.hXN k .X4 ) P t v i $.$.q w q P P $ @ $.$.J r J <.3X3X8X8X8X8X3X>.&.x v }.S { AXMX/ fXD.dXS.T.IXfX} [.$X",
" .( c D h Y.AXeXo.!.hX0XhXeXqX;.{ 8XLXLXLXKXKXKX1.$ H H H +   J i H 0 K IXKXKXKXKXLXLXUXrXUX8Xb S aX@.f.fX:XSX>Xw.`.VXxXd.a.(.h.",
"7 ,X$X/ ..h.z.MXI.!.FXY.R SX>XN :.|.uXiXiXiXiXvX*.@ 0 q q @ + t q q 2 9 pXvXoXiXiXiXiX5.3.7.1.y l 5X0XdXxXR.MXxXq.fXBXA.t.H.} e.",
"Q.H.m.Q ^ S.] m.fXVXY.,.cXQ.0.aXV.4.oX8.8.5.8.9.w X : $ &     $ $ # X &  XoX9.9.8.8.9.2.p 3.Z d | m >XxX4XrXjXy.7XxX#XC.C.dXNX`.",
"=X-.-.X.k L.(.C.xXQ.n.fXxXC.B aXM.C d C *.C 9 u i @ , , ; @ o ; , 8 t J & . . 7. X=.i 9 v ) y ;.i.f.^.y.B.MXI.q.fX*Xr.h./.dX:XD.",
"W { Y.h.( V.<Xa.P.d.I.P.e.#XB _.L.d B f d z 4 = *., P t 8 8 8 w P %.I J : : > ..= e # j x 1 x Y.K.Z.f.r.)./.u.OXG.a.C.d.*Xe.] N.",
"F o. .( ..T.,XJ.d.P.t.k.0.a.i.OX} f V.v.A { z = $.; P H w 8 , q i P P P 0 r 4 %.o 1 5 ) { M j f.H.].h.C.OXo.F.[.j.} J.#X}.h @.D.",
"..c. .| f.o.W.L.f.P.%XY.X.^.P.C.T.aX:X| j [ z 1 P , J H t 8 , H P %.P P w 0 w 1.3 c { j 0.U.x D.(.).f.Z.^.X.N.a.D.#.+X2Xm.z.n.S.",
"#X;. .~.N ! X.! ( Y.^.} [ ~.x.S.xXfXK.@X:Xc 0 0 P 0 K H P 8 , H P %.P P 0 K 0 &.d 1 m o.0.J./ } j.N.b.@.' g.j.~.' N.*XP.X.,X<XT.",
"B.N.n.T.5XqX( [ :XH.;.3XL.j.E fX<Xo.E T.,.8 8 q K q q , = % & t P P H P q K e ) = %.|..Xn Y.GXR.d.W.j.h.c.[ C.k.} #X`.] g.S.O...",
"X.q.y.fXBX4XT ,X.XR Q.MXaXX.} :XL.g ' [ ;.; , w q 0 < ; - = $ w w H H q 0 8 0 *.x .XgXo.m.NXkXz.Q ].} h.<Xh.z.X.@X:X| j.b...7 =X",
"g ;X<X$XA F h.(.T D.&XB G m.@Xf.5 o.X./ 5X$ , w w 9 w $ b z 2 8 w P H H 0 8 8 *.:.}.g T.DXdXg R { Z.e.o.I.K.' d.OXB.c W.z.6 L.;.",
"&.mX<Xf D P.'.h L.*X{ R.gX~ | X.T h.o.R 4X: : q 8 8 8 $ C z % 8 w w q q 0 8 2 $.:.c l mXkXE G m.,Xh K.Y.k $X..c.B.} | S.@.R Z. .",
"SX4Xu.0. .D.X.>.&Xf. ._.H.W 5 j.( { j.h ) : ; 0 0 8 0 , b 4 $ 8 < q K q , , 8 *.f 3 gXE.n k.E D.....n. .N (.E | ! | g.( o.E / 5X",
"%XW r.A.( R O.NX<.7 (.I.1 D x T.^ 1 0X5XJ : $ $ : ; ; $ b 4 2 ; : , , , , ; @ $.b e.#X^ ` ~. .W 7 MXR.! F.m ! [ Q M.} ;.AXR AXrX",
"n +.l.| G R m.Y.R X.z.h.| k. .h 0XrXk 0XhXX   X + o .   - 4 %   X   X @ @ %   8 v.}.M E h.} R #.o.B.m.} N.D...gXT.% 4XAX,.ZXgX6 ",
"b.(.z.Q M.N.F.C.H.N X.X.0.`.X.qXcX;.,.FXwX. X X X   X   d M %       X o + @ o ) 4.M  ..X}.o.o.D.P.F.^.f.} ).R VXT.>.MX5XD JX,.g ",
"OXB.n.#X(.Q.:X).Q.gXL.E.cX[ 3 GX6XO.GXgX) + .   o X .   4 A 4   o O X o + + o P S M u.L.T.Q.@X1X,XZ.;XSXqX} cXE._ JXcX7 AX8XX.=X",
"q.J.J.P.c.B.,Xq.f.`.eX0XkX8X0X5XE.cXdX} e.A x s d z = b 6 x S C y b y $ % 8 z :.n q.s.r.g.^./.!.2Xe.o.sXsXrXhX8XW.F.E.cXeXk fX<X",
"dXQ.C.C.y.n.L.dXc.q.FXrXg LXjXj.VXDXq.V t.q.h.J.U.b.} V..X[ M |.<.= e.b = V..Xs g !.c.` ~.).0.0.U.MXm.n SXmX3 DXsXn jXJXV C.`.} ",
"ZX-.b.).%XG.z.ZX.X>XfX4X5XfXw.fXNX;XF.).Y.,.D.+X(.).k.k.jX5XQ.qX3X,.e.e.e.qXY.f E.VXqXO.g.P.g.G.X.hXaXaXjXM.T.fXP.jXMX(./.>XE.,.",
"k F.P.d.h.S.d.X.MXVX| qXBXC.l.xX`.w.P.jXSXAXF.n n.B.F.g...MXgXB E.jX0.N xX.Xf S.2XdXxX!._ o.h.A.j.n mXMXn T.SXj.:XVX}.w.p.mXAXAX",
"'.^.j.F.d.o.).Z.NXT.`.:XH.-Xe.>X%Xr.q.-.c.m j.).0.( W.`.Z.fXR.P.%XC.`. .K.,Xq.l.p.#.u.r.z.j.Q I.(.C.fX7Xj.MXt.A.u.,X%Xl.A.b.g.k.",
"p.C.' ~.y.| 1X*Xe.n @X_.g.#Xe.$XQ.d.^.a.p.S. .W.@Xo.o.-X,XM k./.~.k.@X[ ~.).` g.t.! t.l.! j.T.{ xX:X0.` D.>Xg.].C.~.).g.a.OXP.t.",
"x.W.E B.L.M.<X).F.@Xy.' b.a.p.OXj.` ^.K.| D.N W `.S.;.<X/.F.,XA.#.m.*X+X&X0.,.AXNXjX!.b.+.! N.@X*XD.Z.*Xa.] d.[.OXa.b.h./.B [ b."
};
