/* XPM */
static char *f7d5ca177f874631b8f6f80d0dfaabdcIY18A1y4iqvnTyAl[] = {
/* columns rows colors chars-per-pixel */
"32 32 244 2 ",
"   c #2D0113",
".  c #230114",
"X  c #340213",
"o  c #3C0313",
"O  c #3D0A16",
"+  c #3F0218",
"@  c #4A020E",
"#  c #5B040E",
"$  c #430314",
"%  c #4B0413",
"&  c #450B15",
"*  c #490C15",
"=  c #540213",
"-  c #5B0514",
";  c #520A13",
":  c #5D0913",
">  c #580719",
",  c #4D141C",
"<  c #571218",
"1  c #660A0E",
"2  c #68080F",
"3  c #74040E",
"4  c #7D030D",
"5  c #780B0E",
"6  c #79110F",
"7  c #640413",
"8  c #6B0414",
"9  c #630C14",
"0  c #6C0B14",
"q  c #610319",
"w  c #6E0618",
"e  c #670C19",
"r  c #730513",
"t  c #7B0415",
"y  c #740B14",
"u  c #7B0A16",
"i  c #720B1B",
"p  c #7B0919",
"a  c #6B1213",
"s  c #681618",
"d  c #7B1112",
"f  c #771618",
"g  c #76201B",
"h  c #6C1B20",
"j  c #732621",
"k  c #7A2921",
"l  c #7E3528",
"z  c #85030C",
"x  c #8B030B",
"c  c #870A0D",
"v  c #94030C",
"b  c #9B030B",
"n  c #93090C",
"m  c #9C0A0B",
"M  c #9E0407",
"N  c #9D100E",
"B  c #820515",
"V  c #8B0513",
"C  c #840B14",
"Z  c #840D1A",
"A  c #890C1A",
"S  c #8E0B12",
"D  c #930514",
"F  c #930C19",
"G  c #9A0918",
"H  c #821812",
"J  c #891817",
"K  c #931013",
"L  c #961912",
"P  c #9B111A",
"I  c #981716",
"U  c #85100C",
"Y  c #A30206",
"T  c #AA0306",
"R  c #A5040A",
"E  c #AC040A",
"W  c #A10C0B",
"Q  c #AB0B0E",
"!  c #B30305",
"~  c #BC0405",
"^  c #BB0A06",
"/  c #B7080A",
"(  c #B8130B",
")  c #A30B1A",
"_  c #A90C17",
"`  c #B90E15",
"'  c #A4131B",
"]  c #AC141C",
"[  c #A61817",
"{  c #BD1314",
"}  c #B3131A",
"|  c #B31C1C",
" . c #B91819",
".. c #89281A",
"X. c #982619",
"o. c #90321D",
"O. c #BA210C",
"+. c #A8291B",
"@. c #B4251B",
"#. c #BC2A1A",
"$. c #B6281C",
"%. c #BC3A1A",
"&. c #B4301A",
"*. c #A5311E",
"=. c #9E1C20",
"-. c #AA1C20",
";. c #842D23",
":. c #8C2B23",
">. c #852020",
",. c #962D22",
"<. c #853423",
"1. c #8A3624",
"2. c #843D2B",
"3. c #8C3D2B",
"4. c #893427",
"5. c #963827",
"6. c #AB2B20",
"7. c #A93928",
"8. c #B83825",
"9. c #B62821",
"0. c #C30203",
"q. c #CB0504",
"w. c #C50B05",
"e. c #CB0B07",
"r. c #D20D05",
"t. c #D80702",
"y. c #CC1309",
"u. c #CF1F0A",
"i. c #C31108",
"p. c #D41406",
"a. c #DD1506",
"s. c #D41C0C",
"d. c #DC1C0B",
"f. c #D4140B",
"g. c #C51512",
"h. c #CD1412",
"j. c #CD1B14",
"k. c #C41B1A",
"l. c #C91D1E",
"z. c #D21C15",
"x. c #EB0701",
"c. c #EA0B03",
"v. c #E50B03",
"b. c #F10C02",
"n. c #E31404",
"m. c #EC1303",
"M. c #E41B05",
"N. c #EC1B05",
"B. c #E61F0C",
"V. c #E41708",
"C. c #F21A05",
"Z. c #F71804",
"A. c #C7210D",
"S. c #D8270C",
"D. c #CB231D",
"F. c #CB2A1D",
"G. c #C7241B",
"H. c #D32314",
"J. c #DA2313",
"K. c #D12519",
"L. c #D22C1D",
"P. c #DB2D16",
"I. c #C83A1D",
"U. c #D8351B",
"Y. c #EC2406",
"T. c #E8270B",
"R. c #F52405",
"E. c #F32D07",
"W. c #F32C0B",
"Q. c #FA2C0B",
"!. c #F5250A",
"~. c #EA320C",
"^. c #F4340D",
"/. c #F9340B",
"(. c #F4390E",
"). c #F83B0A",
"_. c #E52912",
"`. c #F42E13",
"'. c #EC3312",
"]. c #E63819",
"[. c #F53512",
"{. c #F33D13",
"}. c #F93C13",
"|. c #F43917",
" X c #C92B23",
".X c #C42B22",
"XX c #D42E21",
"oX c #CA3324",
"OX c #C43B27",
"+X c #D53422",
"@X c #D83924",
"#X c #E23E23",
"$X c #8B412E",
"%X c #8B4330",
"&X c #874732",
"*X c #984734",
"=X c #AB442D",
"-X c #BB4B2D",
";X c #B74529",
":X c #BE522F",
">X c #A74B33",
",X c #B74C31",
"<X c #A95634",
"1X c #BC5534",
"2X c #BB5934",
"3X c #B75535",
"4X c #EC421F",
"5X c #E4481B",
"6X c #F5441A",
"7X c #FC4B1B",
"8X c #FA4816",
"9X c #FC521B",
"0X c #FA410D",
"qX c #C64727",
"wX c #D14524",
"eX c #D64E2C",
"rX c #DB4C27",
"tX c #C0512E",
"yX c #D3542E",
"uX c #DB5629",
"iX c #DF4C33",
"pX c #C45633",
"aX c #D15C33",
"sX c #EC4B22",
"dX c #E74727",
"fX c #F34C24",
"gX c #FB4D22",
"hX c #E7502C",
"jX c #FD5C24",
"kX c #F95928",
"lX c #E65B34",
"zX c #C2693A",
"xX c #C76339",
"cX c #D96839",
"vX c #D2723F",
"bX c #EF6034",
"nX c #FA6933",
"mX c #B96643",
"MX c #CD6540",
"NX c #D16E42",
"BX c #CF7F48",
"VX c #CF7747",
"CX c #DA7441",
"ZX c #F77442",
/* pixels */
">X2X1X=X6.,X=X> +.;X,X,X7.=.7.% =XxX1X,X,X8.7.H y ( %.;X;X@.#.%.",
"hXkXdX@XXX X9.- fX].dX#XG.] | : eXnXkXU.K.L.L.' X.{.)./.!.!.}./.",
"+XoX} ) _ ] V X ( H. .` ) D D - $.U.F.k.{ D.} B 2 p.m.b.m.V.q.E ",
"A i A Z t w =   y C y u w w e O i =.J u t A u - $ c W R n K S 7 ",
"yXNX3X* 1 ( n O.wXU.I.; OXMXBXBXvXvXVXl   aXwXwXqXg >X<Xj xXxXX.",
"R.Q.u.6 T.E.~.^./.).^.7 n.C.Q.Q.7X/.W.N L 6X{._.g.L.D.P f fXfX@.",
"N.N.^ 3 d.R.N.v.n.T.f.= n N.c.C.C.Z.v.v L J.s.j.` } ] t s L.L.K ",
"v v 7 o y Q b b v V 8 X % Q v b Y b x = % P C u 8 w - $   e 7 + ",
"OXqXtX:X5.,.=X* j 2XxXpXzXcXxX1.$ k tXpX1Xa 7.=XX ,.tX1X2XzXzXzX",
"dXP.J.J.].].H.% '.R.Z.Z.7XR.C.,.qX4Xd.f.H.h.h./ f {.R.m.N.9X9XQ.",
"g.g.{ ` j.k.Q X y.m.x.b.c.C.v.H $.P.j./ { k.} D 1 r.r.q.e.M.C.C.",
"B B t r t 8 = . 7 n z x x v z o - A u r r p 7 %   3 8 = = c m x ",
"eXaXd 7 F.cXCXCXyXI.rX1 < aXcXcXyX#.@.e X 5X5XuXcXuXcX<Xk U.r.m ",
"XX XZ s sX7X{.d.W.^.^.6 .XU.@XI.+XD.| e U Y.Y.M.T.~.W.%...|.m.^ ",
"] P i 7 p.d.r.t.a.M.p.0 ] _ -.B P ' p - z w.w.q.q.0.r.b 0 P.n.i.",
"> = > X r 3 8 z x V 8   % q $ i > q > $ @ v 7 4 v x x % X 3 v 7 ",
"*X-XmXmX3X-X7.$ +.:X-X,X;X;X5.o *.pX:X2X2X#.;XX.7 +.1X2X3X8.;X, ",
"5X6XnX4X4XsXU.* 4X|.[.T./._.L.: S.`.`.[.[./.[.s...sXjX9X'.{.].i ",
"J._.s.H.H.K.[ o y.Y.r.0.T } V = Y x.c.x.c.c.v.! 7 A.r.s.p.^ V q ",
"S m m ' P S 8   4 W x z 4 r 8 X 8 ~ Y E ! T M 3 o C v x x z 8 $ ",
"3.$Xl O < o.1.2.3.5.<.& d <.$X&X1.X.%X<   L 1.&Xl J ..a ; ;.2.2.",
"7X}.I.a S.W.^.B.[.}.W.1 /.8XjX[.(.).9Xf H W.jXjXjX7X8XA.H 0X0X'.",
"R.C.^ 5 Y.N.n.t.n.a.r.# B.E.B.W.n.Y.a.c L ^.{.W.W.W.W.( 6 E.n.m.",
"q.~ 4 $ n w.! ! E Q V X c u.~ w.w.! T = % g.Q Q i.( h.8 o m ~ ~ ",
":.*X*X%X;.>.4.O ; :.3.3.;.C h X l *X%X%X;.5.3.k $ H X.o...X.X.6 ",
"lXbXlXiX@XoXOX& 6.+XdXoXF.G.' ; yXZXnXlXhXhXiX8.5 S.(.'._.~.~.i.",
"F.L.|  Xk. .F o s.J. .G G G V > #.L.L.+XF.G.} D 5 n.m.t.t.r.! T ",
"P ' P Z t w 7 X u A w t 8 t r X u P F F A P V 7 @ m ! ! ! Y n - ",
",.5.k o , 3.2.2.:.X.<.& ..3.1.<.o.X.J 0 9 X.s , 2.s k j O 9 ..J ",
"].#X@.9 I.jX6X_.'.(.6X9 9XjXnX(.{.6XE.O.&.gXsXwX@XoXL.[ 9 P.0XE.",
"z.l.D a ].W.M.n.N.T.n.: |.R.!./.W.Y.M.W J z.K.L.{ k.k.B 0 N.Y.m.",
"G D - X B R b E E R v X 3 e.0.~ ~ ! Y # - ) ) ' B F B = X n / ! "
};
