/* XPM */
static char *_5c6bd700301474ad5d20a7ab03513536VyWYDXRT7wee4ad[] = {
/* columns rows colors chars-per-pixel */
"64 64 256 2 ",
"   c #040101",
".  c #0B0101",
"X  c #090809",
"o  c #120201",
"O  c #1C0100",
"+  c #180A08",
"@  c #1B110D",
"#  c #1D1413",
"$  c #150D12",
"%  c #250704",
"&  c #26150B",
"*  c #271916",
"=  c #371916",
"-  c #350D07",
";  c #39231B",
":  c #2C251D",
">  c #2D2424",
",  c #392A27",
"<  c #3E332D",
"1  c #49180C",
"2  c #48251A",
"3  c #57251B",
"4  c #67281B",
"5  c #742A1A",
"6  c #732F17",
"7  c #462D27",
"8  c #592C24",
"9  c #48342B",
"0  c #58362A",
"q  c #493935",
"w  c #533B34",
"e  c #583A36",
"r  c #4B2E30",
"t  c #662C24",
"y  c #66382A",
"u  c #793727",
"i  c #643C34",
"p  c #733027",
"a  c #671D0E",
"s  c #4D413D",
"d  c #54433C",
"f  c #5C453C",
"g  c #5A4438",
"h  c #63453B",
"j  c #684839",
"k  c #78523C",
"l  c #744937",
"z  c #5B4B43",
"x  c #594945",
"c  c #5E524C",
"v  c #584E4D",
"b  c #6C4D43",
"n  c #654B47",
"m  c #754D43",
"M  c #64534B",
"N  c #6B544C",
"B  c #6A5548",
"V  c #7B5B4C",
"C  c #755749",
"Z  c #635453",
"A  c #6B5653",
"S  c #655A53",
"D  c #6C5A54",
"F  c #6C5D5B",
"G  c #67595A",
"H  c #735C54",
"J  c #7C5D52",
"K  c #715E5A",
"L  c #7D5E59",
"P  c #654F51",
"I  c #6D615B",
"U  c #7B6354",
"Y  c #74625D",
"T  c #7B655C",
"R  c #7A6659",
"E  c #78634D",
"W  c #6D6362",
"Q  c #756561",
"!  c #7A6661",
"~  c #7B6A64",
"^  c #7C6D69",
"/  c #756866",
"(  c #7D7270",
")  c #6F5F64",
"_  c #843A2A",
"`  c #8D3B15",
"'  c #97482D",
"]  c #894835",
"[  c #984C36",
"{  c #87553D",
"}  c #995339",
"|  c #8F4A2A",
" . c #A44C34",
".. c #A3533B",
"X. c #A8573B",
"o. c #AB5237",
"O. c #865947",
"+. c #985943",
"@. c #845D52",
"#. c #AB5C43",
"$. c #A65A46",
"%. c #B15C45",
"&. c #87624C",
"*. c #98634B",
"=. c #836354",
"-. c #83655B",
";. c #846A5D",
":. c #8B6C5D",
">. c #896756",
",. c #976A58",
"<. c #98725C",
"1. c #8A725B",
"2. c #AC634C",
"3. c #A8644A",
"4. c #B3634B",
"5. c #B56347",
"6. c #A86C56",
"7. c #B46B53",
"8. c #B76953",
"9. c #A3735D",
"0. c #AB745D",
"q. c #AB785A",
"w. c #B5765B",
"e. c #836C64",
"r. c #8B6D63",
"t. c #866E69",
"y. c #956D62",
"u. c #8C7265",
"i. c #84726B",
"p. c #8C756B",
"a. c #877567",
"s. c #937464",
"d. c #9D7564",
"f. c #9B7C6C",
"g. c #96776A",
"h. c #9B7D72",
"j. c #927C73",
"k. c #887875",
"l. c #A37563",
"z. c #AB7561",
"x. c #A37A65",
"c. c #AC7A64",
"v. c #A47C6B",
"b. c #AB7C6A",
"n. c #B37C64",
"m. c #B77A65",
"M. c #A27D74",
"N. c #C17456",
"B. c #9C826D",
"V. c #9E8273",
"C. c #9A8579",
"Z. c #8F8378",
"A. c #AB826C",
"S. c #A8816A",
"D. c #B4836B",
"F. c #BB856C",
"G. c #B88668",
"H. c #A38474",
"J. c #A58975",
"K. c #AB8B76",
"L. c #A58A7A",
"P. c #AA8C7C",
"I. c #A78577",
"U. c #BC8B73",
"Y. c #B78A75",
"T. c #AC947D",
"R. c #B4947D",
"E. c #BC9578",
"W. c #B9916F",
"Q. c #B8926F",
"!. c #C5886A",
"~. c #C38D74",
"^. c #C58C76",
"/. c #C3937A",
"(. c #C89578",
"). c #D39A79",
"_. c #C8916C",
"`. c #D79A73",
"'. c #9B8A85",
"]. c #9D9391",
"[. c #A78D84",
"{. c #AD9282",
"}. c #A99689",
"|. c #B29583",
" X c #B49B84",
".X c #B49B8C",
"XX c #BB9D8C",
"oX c #B99886",
"OX c #AA9C93",
"+X c #B7988E",
"@X c #BBA38C",
"#X c #B7A38B",
"$X c #BBA493",
"%X c #B8A798",
"&X c #B0A698",
"*X c #BBB2A8",
"=X c #CC9B83",
"-X c #C69B85",
";X c #D49D85",
":X c #C3A38C",
">X c #CBA688",
",X c #D5A689",
"<X c #C4AA94",
"1X c #C4AD9B",
"2X c #C9AA96",
"3X c #D8AB95",
"4X c #C5B29C",
"5X c #CBB29D",
"6X c #CBB395",
"7X c #D6B599",
"8X c #D7B38E",
"9X c #E5B899",
"0X c #E9B18E",
"qX c #C7ADA2",
"wX c #CCB4A2",
"eX c #CCBAA4",
"rX c #C6B7A6",
"tX c #D2B5A3",
"yX c #D2BAA5",
"uX c #D4BDAA",
"iX c #DABAA7",
"pX c #C8BBB5",
"aX c #D8BFB1",
"sX c #D3ADA6",
"dX c #E6BAA6",
"fX c #E5C39E",
"gX c #DBC2AC",
"hX c #D7C3A7",
"jX c #CBC2B5",
"kX c #D4C5B4",
"lX c #DCC5B2",
"zX c #DACAB9",
"xX c #D8D3BF",
"cX c #E7C6AA",
"vX c #F9C5A8",
"bX c #E5CAB5",
"nX c #F4CCB7",
"mX c #E8D4BB",
"MX c #F6D6BB",
"NX c #F0D4AC",
"BX c #EEE0B1",
"VX c #D8CBC4",
"CX c #DCD6C3",
"ZX c #EAD9C8",
"AX c #F5DAC5",
"SX c #E9DCD6",
"DX c #EDD7CA",
"FX c #F5E2CB",
"GX c #EEE4D5",
"HX c #F2E4D3",
"JX c #F8EADA",
"KX c #FEF2D7",
"LX c #ECE9CA",
"PX c #FEF7E6",
"IX c #FEFBF8",
"UX c #FDEEEB",
/* pixels */
"O M HXjX*XpX%X4X$X}.uXrX4XzXCXDXAXzXZXDXuXkXHXJXAXFXMXMX6Xs.J 2 C.IXIXIXPXLXHXGXJXJXGXJXPXJXJXGXHXHXZXZXZXZXZXZXSXZXZXVX! w 9 . ",
"% [.PXjXOXqXwX#Xs.1.{.{..XwX1X{.<X5XbXuXmXgX5XmXgX6X7XcXs.R J h kXIXGXDXSXmXzXkXJXPXPXPXPXPXPXGXHXHXHXHXHXHXHXHXPXKXKXzX$XC.Z.* ",
"= tXJX%X[.H.|.B.d.f.P.V.H.|.P.T. XR.XX7X6XoX>X2X6XR.>X6XE a.V 0 %XIXSXlXzXmXbXzXZXHXZXkXzXZXDXZXKXZXzXZXZXHXJXHXHXFXmX#X1.1.B.& ",
"- qXgX XXXg.f.J.XXT.H.H.|.oXoX2X|.T.tXiXR.6X7X>XE.>X6X2Xh.C.h 2 .XIXmXgXlXyXgXlXzXzXhX$X$XrXwXrX%X%X%X$X$X%XrX%X#X#X#X#XB k U % ",
"% iXbX:XXXy.:.|.{.I.T.@X XT. X X}.mXFX1X@X6X:XK.#X6X6XI.h.t.i 2 }.IXzX7XuX7XiXiXlXgXlXgXlXlX<X@X#X%XrX1X#X.X%X%X%XT. X$XJ C b % ",
"% uXAXXXI.y.s.XX|.P.{.$X XT.T.J..XzXyX|.{.P.|.XX7X6X2XB.C.t.N 1 '.IXmX7XiXgXiXiXlXuXhXyXyXyX5XwXeX1X%X1X1X$X%XqX$X X#X.Xp.V B O ",
"O wXbXR.v.f.h.XX.X|.{.{.{.{.{.|.{.f.H.L.B.|.@XbX<XR.R.B.C.T H = [.IXhX7XaXgXiXbXgXuXlXuX5X5XwXtX1X4X1X4XwXwX1X$X@X<X#X|.j.U b O ",
"O uXbX XI.M.h.L.P.H.L.L.V.L.P.|.K.K.K.I.P.H.H.H.g.P.:XT.B.R B = '.IXhX7XiXyXiXtXlXuXuXyX1X5XyX1X<X5X1XwXaXaX1X|. X7X@XqXe.C j % ",
". wXnXR.{.v.f.f.H.f.V.L.P.|.P.L.J.K.|.P.XX2XV C s.oXR.I.[.A n = '.PXbX7XhXbXiXyXgXbX5X<XgXgX1XyX4X4XeXeXuXyX.X{.rXrXkX*XU C h o ",
". 1XMXI.H.v.v.h.P.P..X{.P.|.L.H.|.T.J.XX:Xf.=.f.f.P.H.I.C.n f 2 C.PXgXiXgXiXiXhXiXtXtXuXyX1X5XyXeX%X4XlXwX XL.wXkX4XrX&XD &.h o ",
". XXnXH.h.f.d.P.P.I.|.V.V.L.P.|.|.@X|.{.H.>.s.g.f.J.x.|.[.x n ; g.KXgXiXyXwXiXhX1XyXtXtX1X<XyX5X4X#XwXzXwX$X1XlXjXrXjX&XD V g . ",
". P.cXI.h.v.H.[.I.f.P.H.L.P.{.XX XL.H.f.J..X{.g.f.I.oX$Xj.d z = s.KXbXtXwXuXbXhX5XyX5XyXyX5XgXyX@XeXzXgXeXkXZXeXjXkXxXOXN C f . ",
"o H.cXI.g.v.K.h.H.f.H.P.{.|.J.L.V.J.H.g.L.XXI.f.H.J.:X|.T f d ; s.KXbXtXuXbXcXhXbXwX5XgXhXwX4X1X5XDXmXwXrXhXrXuXVXkXzXZ.M C N . ",
"+ P.cXf.g.d.H.H.I.P.H.L.L..XP.V.J.<X{.L.|.H.r.h.L.|.I..Xe., z 7 p.KXMXiXyXiXtXcXyX1XeX5XwXhX4XwX%X$XeXkXkXrX%XkXjXjXzXk.n C U   ",
". H.cXf.g.v.v.|.P.|.P.L.P..XXX|.T.H.B.|.XXf.g.H..XwX|.1Xe.< ! w C.PXMXcX7X6XiXbXiXyXeX4XwXyXyXlXrX}.rXkXkXrXjXkX*XzXpXi.N C V . ",
". f.AXP.g.H.K.L.P.|.H.f.V.H.XXXX:.;.<X@Xf.f.XX.X$X.X[.p.d Z k., [.PXMXcXhXcXMXhXuXgX5XyX4X4XbXuX$XkXzXzXCXxXCXxXVXDX%XG H @.C . ",
"  d tX<.&.&.1.U <.s.r.u.u.f.;.C b g.{.B.E T C.j.;.U N M M Q I @ e.JXY.v.mXeX$XAXFXZXlXrXzXSXaXuXzXzX*X&X&XOXOX&X$XOXi.H f R S   ",
"  * ;.l k k l m C V V C m C C m =.C m k C C C N B B B z z z s . , T.>.,.B.E 1.Y.XXg..XDXVX}.T Z.C.-.C H J M B N j B D n h u.z . ",
"  o e j i j j j b b j j h h h b n h h h h g w w w w w w q 7 , o o b <.l.>.&.&.m 8 y j @.k 0 0 h i 0 j j h j b b j B H h j V ; o ",
"  . * 2 % % % O . o o o o o o & # .   .         .     . X   X     @ , , * 7 r r 7 g h 0 0 j j h h g h h h h b n j B Y H f 7 & o ",
"X . . o . . . + # * & + o + o .   .       X $ X .                                       . @ # * & * * + + + + o + * * , ; ; > . ",
"X . x '.*X*XVXVXHXZXbX1XP.L.N & o Z.%XOXrXrXrXrX1X1XXX.X{.[.h.f.e.e.T n f g ; & q q 7 ; *           .   .     . . + X . . o # $ ",
". > VXIXPXPXJXmXbXhXiX7X5X<XB . 0 lXFXbXmXmXAXAXZXAXAXAXMXAXbXnXnXnXMXvXvXdX,X-XdX3X3X3XoXr.w . . . v ].pXpX*XjXjXjXpX'.x % . X ",
"  x PXzX%X{.<.>.R E C 1.{.%XQ < h.$XuXDXgX1XgX%XwXwXwX1X@X:XR.oX:X2X:X-X=X(.,XdX3X;X;X;X=XdXsXr o 9 VXUXSXSXVXpXpXrX&XOX}.N + . ",
"  k.DXr.H K H H ! e.Y D j.C.a.a.! t.h.f.s.d.d.&.v.d.<.l.l.,.9.c.6.m.m.c.c.3.w.7.7.w.w.m.~.7.^.C . n rX[.g.a.h.r.s.V.f.a.~ D * o ",
"  '.bXJ ~ i.t.e.e.e.e.! e.a.T R n N J C :.v.v.|.v.A.v.A.D.D.F.c.0.0.n.m.c.+.3.$.$.+.2.6.w.2.m.0 o n %Xp.y.j.V.s.s.s.u.T n 9 & = ",
"  '.iXU p.p.t.T ! e.! t.i.U g M t.H N :.f.f.f.d.H.A.b.c.b.D.D.0.z.0.n.z.6.+.$.4.7.3.8.2.3.X.7.8 o i &Xu.y.p.r.=.s.U U H d 9 * , ",
"  '.wXU e.i.i.a.p.p.T e.t.z 9 T T T u.s.f.f.y.:.l.l.l.l.l.z.n.D.c.0.0.6.6.2.4.4.#.#.%.%.$. .w.i o e $Xg.g.;.C C -.J Y D x w * > ",
"  [.sXE e.i.a.a.r.T ;.e.T g z '.e.p.;.;.H.f.>.v.l.l.l.c.l.9.0.n.q.0.6.w.m.7.7.#.%.5.%.$.$.#.8.y O 0 .Xg.g.;.C =.=.-.J z x x * * ",
"  '.2Xs.p.t.r.U J J r.;.U e f t.g.-.s.|.T.d.l.x.d.<.l.l.z.z.0.c.0.0.6.w.N.8.4.#.%.2.4.$.2.5.#.i O i XXf.y.;.>.:.=.e.N x d x * # ",
"  p.oXs.u.;.r.T T T T U U B n T ;.:.<X2Xd.d.v.y.l.9.l.z.z.z.z.n.m.0.2.2.2.#.#.#.#.$.%.} +.X.[ y % i XXB.:.J =.:.=.e.A M s q : # ",
"  r.oX>.:.r.-.;.r.-.U T U H D t.s.:XXXx.d.v.l.d.<.,.l.z.z.0.6.z.m.m.N.4...#.#.2.$.$.#.$.+.X.} y = t P.f.:.C =.>.r.r.M z s q > . ",
"  >.-Xs.r.r.R >.u.T ;.=.N W Z -.K.R.A.d.l.l.d.l.l.l.x.l.0.0.0.w.w.7.8.8. ...4.2.$.$...X.X.} $.4 - y d.d.<.=.:.:.h.-.e q < s * . ",
"  :.-Xf.p.-.U =.;.Y T =.J F G g.A.S.x.l.x.x.x.l.x.l.l.l.z.z.w.w.7.7.X.%. .X.8.} $.8.%. .[ $.} 4 3 3 <.x.&.:.y.-.J C f d < q * . ",
"  @.Y.;.r.-.U =.U R ;.=.U c ! |.x.l.b.A.x.x.v.x.l.l.9.q.z.0.0.6.7.7.#.5.X.5.8.' 4.4. .' X.+.4 3 2 1 O.l.O.O.=.r.C J U M , q : . ",
"  J Y.=.r.-.U ;.=.U U U ;.z ~ R.9.l.A.A.x.x.v.d.l.l.9.z.q.0.6.2.2.4.5.#. .X.#.[ 8...[ ..2.p 1 t % y *.+.O.>.>.J =.;.;.H , < *   ",
"  V Y.V L ;.U -.J H J ;.r.q N A.q.c.b.x.l.x.d.,.z.c.0.q.q.3.2.2.5.5.X.o.' [ } $. ...X...[ u p 4 - l ,.*.,.,.>.J s.>.T t.9 , *   ",
"  J Y.=.T r.R J J H T u.T , B U.9.A.b.l.l.x.<.,.6.q.q.w.7.2.4.#.8.5. .X.X.....$.[ ..[ | 5 ] ] 1 4 p O.z.,.O.=.g.:.U J T 7 , #   ",
"  V Y.H.r.-.E J -.T e.r.H , J /.*.9.c.9.9.l.9.,.*.6.6.6.2.2.5.%.%.o. .X...} [ _ _ _ _ _ u _ u 5 u u +.0.O.&.g.g.=.>.r.J = < #   ",
"  i k u.-.b B U J e.p.U z , J Y.,.<.<.,.,.,.*.O.+.*.} ] ' [ %.o.o. . .' _ ' _ 5 5 u [ _ ] u a u _ p ] 9.&.>.g.r.C J g.H * 9 # X ",
". w y i w x A H U T H f 9 7 j >.O.*.&.{ { { { k O.{ { ] | | #.X.' ' ..$.] _ u ] u } _ _ [ 5 4 u u ] _ ] 9.,.-.N m j C 0 ; w *   ",
"  7 k 0 b K h C =.b 0 0 e 7 8 =.{ +.] l u u u u u u u | [ [ #.X.X.' [ [ ] u 6 u p p 5 5 5 a u u p u _ u ] l i h e 8 7 7 f s X   ",
"  o 0 j C b j l i i 0 e i h 0 e 0 0 0 0 8 8 8 0 8 8 u u y l y y t y y 3 8 8 3 3 t 3 3 3 3 t u t 3 t y 8 8 0 8 r w 9 7 w d ,     ",
"  . 2 i 0 0 8 1 1 1 1 % O = % O X           . . o O + + . .         X   . . . .   . o . . + o . o o O % % O o o o o . & +       ",
"X   . % % % - - 3 3 2 h C ; O f z 9 9 q w w 9 9 , q @ . X   X X   X v ( k.( ( G M A H N n f w d w 7 7 : . * c c x d * & @ .     ",
"    z C.L.K.-X2X-XoX2XAXFXyX1XDXMXbXnXMXMXnXcXcXMXbX-Xk b * .   o [.FXmXtX:X:X2X>X>X>X>X8X8X>X7XdX-Xv.;.a.&XCXSXSXSXOXG q > X   ",
"  x JXPXDXAXAXnXdXdXiXiXMXAXAXbXcXcXnXcXcXcXfXNXNXNXFX9XR.J % . ; DXbXA.Y.E.R.E.>X/.G.(.,X,X>X,X7X2Xs.p.}.k.Y '.}.*XOX^ x x >   ",
". }.PXFXFXgX2XcXdX3X2XcXAXiXcXDXmXmXDXmXAXAXbXmXBXNXhXMXf.H q   > SX&Xe.C.u.T e.C.p.T p.p.j.p.! ;.C.R F W W ^ ) ^ / i.Q x v <   ",
". qXAX~.(.,Xq.W.!.w.).9XfX).).0X,X(.).0X).3XcXAX8XoX8XNXP.8 r.  , AX:.Z G Z v z c Z Z c Z Z v Z s Z F S G I I F S F W W c r q   ",
"& H.q.' ' w.)._.).).).8X8X(.G._.3XG.w.G.G.G.dXiX8X:X7X9X<Xi :.# : AXu.W Y F W ^ / Q Y Q / / F Z G / ( ^ ( ^ W Z S G G W c 7 7   ",
"+ 2X3.` N.!.`.0X,XG.,X,X).(.~.).3X,X8X,X,X>Xx.:XNXiX>X>X5Xh J q > bXr.Q ^ Y ^ ^ ~ Y ~ ~ ~ i.i.i.Q ~ ^ ^ ^ / F S Z Z Z Z x 7 7 . ",
". wXdXa } 9X).9X,XG.9X(.F.;X(.~.-X,X=XD./.>X>.2X7X6XE.E.5XV @.s * gX;.W ~ Y W D K H Y Y D K ! i./ Q Q / Q F Z Z S S v q < 7 w . ",
". +XAX+.} 9XU.~.W.(.U.6.n.^.0.c.c.U.A.q.U.Y.>X7X>X-X>XQ.iXoXJ > X 2Xu.F Y Y F K T Y Y T ! Y Y ~ i.~ ~ ^ ~ Q I I I Q G q , 0 z o ",
". $XnX).)._._.!.q.q.6.q.U.(.=X=X0.=X=X3X3X-X,XY.E.-X7XW.<X:.b * X :Xs.F K T Y T ! ! ! ~ i.i.~ i.i.! Q ^ ^ ^ ^ / I Q Q G d w n @ ",
"  $XMX!.!.!._.G.~.G.^.~.U.~.,XU.n.U.U./.U.3XU.Y.G.>XE.>X2Xy V : # :X:.F Y T Y R Q ! ~ ! Q ^ i.i.Y Y ! ^ ^ ~ Y S S F F / z 7 f @ ",
"  OXnX!.w._.~.S.!._.F.~.=X/.D.b.;XU.=XD.c.(.~.~.>X-Xq.>XoXi V # # XX=.F T H I U Y Y ~ Y F ^ ^ Y Y Y ! ! Y Q ~ Q S F G / c ; r + ",
"  I.nXG.w.).!.G.).~.n.n.~.(.c.D.=XF.n.D.D.n.D././.D.~./.7X@.C @ @ |.=.D K H I D Y Y Y Y Y Y Y T Y Q Y Y Q ~ Q Y S K Q 9 ; 7 w + ",
"  P.vX3.n.).!.w.!.G.q.G.^.F.6.F.F.z.9.U./.n.D.F.U.E.(.>X6Xl n * * [.V N K H D N K D D Y ! Y Y ! Y Q Y Y ! ! K G Y Y K < & 7 w + ",
"  B.vXq.^.!.m.F.n.n.q.G.;X;XD.~.^.0.F.F.F.=X/.Y.=X/.E.E.R.m n + * P.=.N A H I N H D H Y Y Y Y Y Q Q Y Q ! Y Y Y S Y Q Y 9 ; w X ",
"  s.vXm.F.m.m.F.q.n.F.(.,X;X~.=X~.F.~.0.n.(.D.D.A.S.A.-X Xm e   * I.V n G H D A D Y T K D D K Y Q Q Y Y K G F Q Y Q G / w & w @ ",
"  s.vX3.*.!.m.9.F.q.n.F.n.*.*.n.F.n.n.^.~.(.,X>X-X3X,X7X6X0 e   * g.m d G A M A D Y Y D A D Y Y ~ Q D K D D ~ k.^ K G c 9 = z + ",
"  <.vX!.m.!.0.,.*.*.6.*.+.{ +.*.9.*.q.^.m.q.D.Y.>X7X,X3X>X2 b   * h.=.x Z A M H Y K D A D Y Y Y Y K D ! ~ Q i.i.S Z K S d w A   ",
"  =.0X,X~.+.] { l 6.m.0.F./.(.F.q.*.m.0.+.n.U.>XY.D.(.9XR.3 b   , M.:.M P A D Y T Y D A D Y Y Y A D K ^ Q Z Z M z P Z c d e A . ",
"  C _.m.6.} 6.F.0.c.6.6.^.(.~.F.D./.;Xm.3.F.(.=X-XA.G.(.,.i i   x y.C N A M M A K Y Y A A Y ! K Q Q F G x q x M x P c x f b w   "
};
