/* XPM */
static char *floor[] = {
/* columns rows colors chars-per-pixel */
"32 32 52 1 ",
"  c #B47C4C",
". c #B47E50",
"X c #B7804E",
"o c #BB824F",
"O c #B68252",
"+ c #BC8453",
"@ c #BE8956",
"# c #BE8B59",
"$ c #C18B56",
"% c #C28D5A",
"& c #C59057",
"* c #C5915D",
"= c #C9955E",
"- c #CB985E",
"; c #C69561",
": c #C99661",
"> c #C79866",
", c #CD9B64",
"< c #CD9E69",
"1 c #D09E65",
"2 c #D19F68",
"3 c #CFA065",
"4 c #CFA16B",
"5 c #D2A166",
"6 c #D3A46B",
"7 c #D6A86E",
"8 c #D9AA6E",
"9 c #D3A671",
"0 c #D6AA73",
"q c #D9AD73",
"w c #D6AE7B",
"e c #D8AF78",
"r c #DBB076",
"t c #DDB37B",
"y c #DFB87D",
"u c #E0B77C",
"i c #E1B97E",
"p c #DEB780",
"a c #DFB982",
"s c #E0B780",
"d c #E2BC83",
"f c #E5C186",
"g c #E6C28B",
"h c #E8C68D",
"j c #EAC98F",
"k c #E6C690",
"l c #E9C791",
"z c #EBCB93",
"x c #ECCF98",
"c c #EED097",
"v c #EED29A",
"b c #F1D59C",
/* pixels */
"dd03-35rfgfzzjhh88788ufazvjjjgt9",
"4,-,35rihzcczzhu88rjccvbvvxzr---",
"$=-,3rjzkbzdq8878rzcvbbxkfy03,,3",
"$&-,rifru7966857fjccbbvi8733,34q",
"&-9tyar7767787ujcjccjay8887q8dyt",
"rtyfde787877rgjzccbzirr88rrhfyff",
"tyade756567udzzxzjdirr88djcjjzhf",
"rq3;&-53679dzzltr78,57fhbbvczzg9",
"+$&=-=,7ddhhjdt7887urdzvbbvza7,;",
"o$&=,5rfghjhu8767rqdzbbbbke733-,",
"@==30ddfghdtqqqqtgbvbbbvkt5331,,",
"&5rrideffiq888ugjcbbvxke93631336",
"9rtydq64,,678uljbbvzt755115616rq",
"ryaat,,45559thxddbltq9661169rhdd",
"rq0--,,;,6qdfgjjgutt8qqqr7rudkhh",
";%%**:,5qgjjjljdtq9q8tsdsuuddtp4",
"$$$*:8ddldlllgsrqq56phzhggdhs4,:",
"$$%:,sddlllldeq88qttlzlagghdq<:2",
"o$,2rsddq9,:,2229tkjzzzjdt9552qq",
"=17qse2,12,11260dghjkda97256qtds",
"20tss<::2::220sdhhghp929<9q90qdd",
"q0e0::::*:,9ssdghd42,,,,5tdates9",
"e0>**;::,29qssggd9<2459rpttddd42",
"<*%*;,240ttsw2>:%::,qtdgdddpp4::",
"+#%,<0eqsess;>***::9dddsdkw>+$*$",
".$,90qrtss9>;%*%:2sadddp<@+. .++",
"+:299etp92,,:%*;:qssaw:+.  . +$;",
"%:299>>%*==,,2290e<2%%.   .+%>22",
"%;<:%;@%+%*:26994::;*$.  .$12222",
"::<%#$*##*,266092;%%$.+$*60466<:",
":4%++#$%:22666>%%@++$%,<0qe02%;$",
"#O .O%*:=>22:%++++%=2880qr9*O..."
};
